<svg width="198" height="136" viewBox="0 0 198 136" fill="none" xmlns="http://www.w3.org/2000/svg">
<g filter="url(#filter0_d_0_18)">
<path fill-rule="evenodd" clip-rule="evenodd" d="M163.376 84.0283V85.6949V99.2267V100.336V102.555V124.83V132.325L160.671 136H168.234H179.821H189.882L187.663 132.325H187.594V103.111L189.051 99.0867H183.847H185.511H187.524C188.009 93.1889 193.005 88.4705 198.972 88.4705C205.078 88.4705 210.006 93.1889 210.49 99.0867H212.504H214.238H208.965L210.422 103.111V132.325H210.353L207.716 136H218.056H229.226H236.86L234.708 132.325V124.83V102.555V100.336V99.2267V85.6949V84.0283V79.2418V78.6162L241.022 73.6898H241.23V73.4809V73.2041H234.708V68.4161V67.0998V65.9885V65.2259H163.376V65.9885V67.0998V68.4161V73.2041H156.785V73.3441V73.6898H157.131L163.376 78.6162V79.2418V84.0283Z" fill="#009EE2"/>
<path fill-rule="evenodd" clip-rule="evenodd" d="M161.363 94.4379V102.07V102.695V103.319H160.878V116.086V116.918V121.708V122.539V133.989V135.446V135.999H77.4053V135.446V133.989V122.539V121.708V116.918V116.086V103.318H76.502V102.695V102.069V94.4372V93.397H77.6814V86.2494V68.901V67.7912V52.2486V51.1357V19.2889H76.0171V17.2061H79.3473V14.084H80.5274V13.1142H80.8739L82.1925 10.7547L83.58 8.25585L84.8986 10.7547L86.218 13.1142H86.5652V14.084H106.271V17.2061H109.671V19.2889H107.798V51.1357V52.2486V53.0816H115.985L117.305 43.1568L117.582 40.5212V26.366H115.362V24.6298H117.582V22.7559H119.456V24.6298H121.676V26.366H119.456V40.1739L119.872 43.156L121.19 53.0808H130.419V52.2479V51.1349V19.2881H128.753V17.2054H132.085V14.0832H151.375V13.1134H151.721L153.04 10.7539L154.358 8.25507L155.745 10.7539L156.995 13.1134H157.411V14.0832H159.008V17.2054H162.407V19.2881H160.535V51.1349V52.2479V67.7904V68.9002V86.2486V93.3962H161.366V94.4379H161.363ZM130.416 56.2045H121.118V62.0342L121.673 62.9336L124.865 67.932H130.416V67.792V56.2045ZM115.983 56.2045H107.795V67.792V67.932H112.237L115.36 62.9336L115.983 62.0342V56.2045ZM128.959 81.7391C128.682 76.7431 124.796 72.7888 119.869 72.4423C124.796 72.788 128.682 76.8127 128.959 81.7391ZM82.6782 68.6257H102.801V67.7928V53.36H82.6782V67.7928V68.6257ZM89.8938 55.7892C89.2009 55.7892 88.576 56.2045 88.576 56.6886V67.0287H91.2124V56.6886C91.2116 56.2045 90.6571 55.7892 89.8938 55.7892ZM95.0979 55.7892C94.4041 55.7892 93.7792 56.2045 93.7792 56.6886V67.0287H96.4157V56.6886C96.4157 56.2045 95.8612 55.7892 95.0979 55.7892ZM86.9101 73.6905H84.2041V70.9845H86.9101V73.6905ZM101.135 73.6905H98.36V70.9845H101.135V73.6905ZM142.629 55.7892C141.935 55.7892 141.311 56.2045 141.311 56.6886V67.0287H143.948V56.6886C143.947 56.2045 143.391 55.7892 142.629 55.7892ZM147.834 55.7892C147.138 55.7892 146.584 56.2045 146.584 56.6886V67.0287H149.152V56.6886C149.152 56.2045 148.597 55.7892 147.834 55.7892ZM139.646 73.6905H136.938V70.9845H139.646V73.6905ZM153.871 73.6905H151.164V70.9845H153.871V73.6905ZM82.4686 133.989H84.3417V115.67C84.3417 110.05 92.5991 105.47 92.5991 105.47C92.5991 105.47 100.857 110.05 100.857 115.67V133.989H103.563V122.539V121.708V116.918V116.086V103.318H82.4686V116.085V116.918V121.707V122.539V133.989ZM108.629 133.989H110.779V115.67C110.779 110.05 119.037 105.47 119.037 105.47C119.037 105.47 127.294 110.05 127.294 115.67V133.989H129.654V122.539V121.708V116.918V116.086V103.318H108.629V116.085V116.918V121.707V122.539V133.989ZM134.788 133.989H137.147V115.67C137.147 110.05 145.404 105.47 145.404 105.47C145.404 105.47 153.662 110.05 153.662 115.67V133.989H155.743V122.539V121.708V116.918V116.086V103.318H134.788V116.085V116.918V121.707V122.539L134.788 133.989Z" fill="#009EE2"/>
<path fill-rule="evenodd" clip-rule="evenodd" d="M17.2435 22.5517L18.354 32.959L55.1985 28.9351L54.0895 18.527L17.2435 22.5517ZM46.5955 117.544C27.3747 117.544 10.7904 125.177 4.06128 136H89.2697C82.3997 125.177 65.8858 117.544 46.5955 117.544ZM62.9702 89.4418L23.8357 93.7449L24.043 96.1037L63.2486 91.8014L62.9702 89.4418ZM47.8445 2.08116L19.6727 5.13445L19.4646 3.05408L47.6372 0L47.8445 2.08116ZM54.852 14.9873L15.6472 19.22L15.9249 21.6484L55.0601 17.3461L54.852 14.9873ZM56.4483 29.8361L17.3131 34.1392L17.5211 36.5691L56.7267 32.2661L56.4483 29.8361ZM58.0445 44.7553L18.9086 49.0576L19.1862 51.4164L58.3214 47.1853L58.0445 44.7553ZM59.7096 59.6057L20.5056 63.9065L20.8521 66.3349L59.9873 62.0341L59.7096 59.6057ZM61.3059 74.5226L22.1707 78.8257L22.4483 81.2541L61.5827 76.9494L61.3059 74.5226ZM23.3501 17.6933L22.0314 5.76012L45.6929 3.19172L47.0115 15.1249L23.3501 17.6933ZM39.4479 9.0895L39.8655 13.3222L43.959 12.9069L43.5414 8.67342C43.4022 7.4948 42.3628 6.5915 41.253 6.72993C40.1424 6.86914 39.3087 7.91011 39.4479 9.0895ZM25.3624 10.6865L25.8481 14.9177L29.9416 14.432L29.4567 10.2009C29.3159 9.01989 28.2765 8.18774 27.1667 8.32617C26.0561 8.39578 25.2232 9.43518 25.3624 10.6865ZM32.3707 9.92165L32.8556 14.1551L36.9491 13.6694L36.4642 9.43597C36.3946 8.25735 35.3544 7.35403 34.1742 7.56441C33.0637 7.63402 32.3011 8.67343 32.3707 9.92165ZM50.2737 21.0266L51.0354 27.8934L53.4646 27.6165L52.7021 20.7474C52.6317 20.1921 52.0772 19.776 51.3834 19.8441C50.6889 19.9137 50.204 20.4009 50.2737 21.0266ZM26.4722 84.5147L27.3051 91.3853L29.6647 91.1069L28.9014 84.2378C28.8318 83.6817 28.2773 83.2672 27.5828 83.3353C26.9587 83.4745 26.4722 83.9609 26.4722 84.5147ZM29.8727 84.0978L30.6353 91.0389L33.0629 90.7597L32.3003 83.8913C32.2315 83.3353 31.6755 82.92 30.9825 82.9896C30.2896 83.0584 29.8031 83.6144 29.8727 84.0978ZM33.2725 83.8209L34.0358 90.6228L36.3954 90.4132L35.7009 83.4745C35.6313 82.9192 35.008 82.5711 34.3135 82.6415C33.6894 82.7119 33.2037 83.1984 33.2725 83.8209ZM36.6026 83.4049L37.3675 90.2716L39.7952 89.9948L39.0318 83.128C38.9622 82.5704 38.4069 82.2239 37.714 82.2239C37.0195 82.3639 36.5346 82.8511 36.6026 83.4049ZM40.004 82.9888L40.7665 89.926L43.1261 89.6491L42.4332 82.7815C42.3636 82.2247 41.7387 81.8086 41.1138 81.8782C40.4201 81.9478 39.9344 82.5008 40.004 82.9888ZM43.3341 82.7119L44.0975 89.5099L46.5266 89.3018L45.8321 82.3631C45.7625 81.8078 45.1392 81.4621 44.4439 81.531C43.751 81.6006 43.2645 82.0855 43.3341 82.7119ZM46.7347 82.2943L47.4964 89.1634L49.9256 88.8865L49.1631 82.0855C49.0943 81.4621 48.4694 81.1149 47.8453 81.1149C47.15 81.2541 46.6651 81.739 46.7347 82.2943ZM50.1344 81.9478L50.8282 88.8162L53.3262 88.5401L52.5621 81.6686C52.4925 81.1149 51.8683 80.6996 51.1746 80.7692C50.5505 80.838 50.0641 81.3918 50.1344 81.9478ZM53.4646 81.6006L54.2279 88.4705L56.6571 88.1936L55.8938 81.3229C55.8242 80.7692 55.1993 80.3531 54.5752 80.4235C53.9495 80.4923 53.395 80.9765 53.4646 81.6006ZM56.8652 81.1853L57.5581 88.0536L60.0553 87.7752L59.2928 80.9765C59.2239 80.3524 58.6679 80.0059 57.9749 80.0059C57.2812 80.1459 56.7955 80.6292 56.8652 81.1853ZM24.8767 69.4578L25.5712 76.3269L28.0685 76.0501L27.3059 69.1786C27.2363 68.6256 26.681 68.2784 25.9873 68.2784C25.2928 68.4168 24.8079 68.9017 24.8767 69.4578ZM28.2076 69.1113L29.0398 75.9796L31.3994 75.7028L30.6361 68.8321C30.5664 68.2784 30.0119 67.8631 29.3167 67.9327C28.6933 68 28.2076 68.5552 28.2076 69.1113ZM31.6074 68.7625L32.3707 75.634L34.7999 75.3563L34.0358 68.416C33.967 67.9319 33.4125 67.5158 32.718 67.5854C32.0243 67.6543 31.5378 68.1399 31.6074 68.7625ZM34.9384 68.3488L35.7697 75.2171L38.1293 75.0106L37.4364 68.1399C37.2979 67.5158 36.7426 67.1694 36.0489 67.1694C35.4232 67.307 34.9384 67.7927 34.9384 68.3488ZM38.3373 68L39.1022 74.8707L41.5298 74.5906L40.7657 67.7231C40.6961 67.1694 40.1416 66.7517 39.4471 66.8198C38.7542 66.8886 38.2685 67.4462 38.3373 68ZM41.7379 67.6543L42.5012 74.5226L44.86 74.2442L44.1671 67.307C44.0975 66.8198 43.4718 66.4037 42.8484 66.4741C42.1539 66.5429 41.6683 67.0286 41.7379 67.6543ZM45.0688 67.239L45.8321 74.1066L48.2613 73.8977L47.4964 67.0286C47.4964 66.4029 46.8739 66.0564 46.1786 66.0564C45.4849 66.1964 45.0008 66.6821 45.0688 67.239ZM48.4694 66.8886L49.2327 73.7593L51.5923 73.4817L50.8978 66.6117C50.8289 66.0564 50.2048 65.6404 49.5799 65.7804C48.8854 65.7796 48.399 66.3349 48.4694 66.8886ZM51.8683 66.5429L52.5621 73.4136L55.0601 73.1352L54.2975 66.1964C54.2279 65.7108 53.603 65.2947 52.9101 65.3643C52.2844 65.4339 51.7307 65.9196 51.8683 66.5429ZM55.1993 66.126L55.9626 72.9983L58.3918 72.7879L57.6285 65.9196C57.5589 65.2939 56.934 64.9482 56.3091 64.9482C55.6858 65.0867 55.1289 65.5723 55.1993 66.126ZM23.2116 54.4009L23.9742 61.27L26.4026 61.0612L25.64 54.124C25.5712 53.5664 25.0159 53.2199 24.3222 53.2895C23.6965 53.3599 23.142 53.8456 23.2116 54.4009ZM26.6106 54.0521L27.3059 60.9228L29.8031 60.6451L29.0398 53.7752C28.9702 53.2199 28.3469 52.8039 27.7212 52.8742C27.0283 52.9431 26.5426 53.4968 26.6106 54.0521ZM29.9416 53.7064L30.7041 60.5755L33.1333 60.2987L32.3707 53.4295C32.3011 52.8743 31.7458 52.4582 31.0529 52.5278C30.4272 52.5974 29.9416 53.0831 29.9416 53.7064ZM33.3421 53.2895L34.1046 60.1602L36.5338 59.9514L35.7689 53.0831C35.7001 52.4574 35.1456 52.1117 34.4511 52.1805C33.7589 52.2501 33.2725 52.7343 33.3421 53.2895ZM36.673 52.9431L37.5068 59.8122L39.8663 59.5354L39.171 52.6654C39.0326 52.1109 38.4773 51.6941 37.7836 51.7637C37.1595 51.8341 36.673 52.3878 36.673 52.9431ZM40.0736 52.5974L40.8361 59.4657L43.2645 59.1873L42.502 52.3205C42.4332 51.7645 41.8771 51.3468 41.1842 51.4172C40.4889 51.486 40.004 52.0413 40.0736 52.5974ZM43.4726 52.2502L44.2367 59.0481L46.5962 58.8409L45.9025 51.9733C45.8329 51.346 45.2088 51.0004 44.5143 51.07C43.8894 51.1372 43.403 51.6253 43.4726 52.2502ZM46.8035 51.8341L47.5668 58.7009L49.9952 58.424L49.2327 51.5572C49.2327 50.9996 48.6078 50.5827 47.9141 50.7227C47.2196 50.7908 46.7347 51.2764 46.8035 51.8341ZM50.2041 51.486L50.9666 58.3552L53.3262 58.0783L52.6309 51.2076C52.5621 50.6539 51.938 50.2378 51.3131 50.3074C50.6201 50.3747 50.1344 50.9307 50.2041 51.486ZM53.5342 51.1372L54.2975 57.9391L56.7955 57.7318L56.0322 50.8604C55.9626 50.237 55.3393 49.8914 54.6448 49.961C53.9495 50.0282 53.4646 50.5147 53.5342 51.1372ZM21.6162 39.4129L22.3091 46.2108L24.7383 46.0036L23.975 39.0664C23.975 38.5087 23.3508 38.1631 22.7259 38.2303C22.0322 38.3007 21.477 38.7887 21.6162 39.4129ZM24.9463 38.9976L25.7096 45.8643L28.1388 45.5883L27.374 38.7887C27.3051 38.1638 26.7498 37.8174 26.0553 37.8174C25.4312 37.9542 24.8767 38.4399 24.9463 38.9976ZM28.3469 38.5815L29.0398 45.5186L31.5378 45.241L30.7049 38.3703C30.7049 37.8166 30.0816 37.4005 29.4575 37.5382C28.7622 37.5382 28.2773 38.0942 28.3469 38.5815ZM31.6762 38.3007L32.4411 45.1722L34.8687 44.8953L34.1054 37.9542C34.0358 37.4686 33.4813 37.0548 32.7876 37.1229C32.1627 37.1917 31.6762 37.6782 31.6762 38.3007ZM35.0768 37.8846L35.8393 44.7553L38.2685 44.4793L37.506 37.6782C37.4364 37.0548 36.8811 36.7076 36.1874 36.7076C35.4929 36.8452 35.008 37.3309 35.0768 37.8846ZM38.4069 37.5382L39.2399 44.4096L41.5994 44.132L40.905 37.2605C40.7665 36.7068 40.212 36.2915 39.5167 36.4292C38.8934 36.4292 38.4069 36.9845 38.4069 37.5382ZM41.8083 37.1917L42.5716 44.0632L45.0008 43.784L44.2359 36.9148C44.1671 36.3596 43.611 35.945 42.9173 36.0131C42.2228 36.0827 41.7379 36.5692 41.8083 37.1917ZM45.2072 36.7748L45.9698 43.644L48.3294 43.3663L47.6364 36.5691C47.4957 35.945 46.9412 35.5947 46.2474 35.5947C45.6233 35.7339 45.1384 36.2211 45.2072 36.7748ZM48.5374 36.4292L49.3015 43.296L51.7307 43.0199L50.9666 36.1515C50.897 35.5939 50.3425 35.1786 49.648 35.3178C48.955 35.3178 48.4694 35.8715 48.5374 36.4292ZM51.9387 36.0827L52.7021 42.9503L55.0609 42.6734L54.3679 35.8043C54.2983 35.249 53.6726 34.8329 53.0485 34.9033C52.3548 34.9721 51.8683 35.4578 51.9387 36.0827ZM19.9495 24.3552L20.7144 31.2267L23.142 30.9483L22.3787 24.0095C22.3091 23.5238 21.6858 23.1078 20.9913 23.1766C20.3672 23.2462 19.8807 23.7326 19.9495 24.3552ZM23.3501 23.9383L24.043 30.8098L26.4722 30.5986L25.7096 23.7319C25.7096 23.1062 25.0847 22.7574 24.4599 22.7574C23.7661 22.8974 23.2116 23.3846 23.3501 23.9383ZM26.6802 23.5927L27.4435 30.4602L29.8727 30.1833L29.1094 23.315C29.0398 22.7574 28.4853 22.3421 27.79 22.4813C27.0971 22.4813 26.6106 23.0389 26.6802 23.5927ZM30.0808 23.2462L30.7745 30.1137L33.2717 29.8369L32.4404 22.9662C32.4404 22.4125 31.8147 21.9964 31.1905 22.0668C30.496 22.1356 29.9416 22.6197 30.0808 23.2462ZM33.4125 22.8278L34.175 29.6969L36.6026 29.4896L35.8393 22.6189C35.7697 21.9948 35.2152 21.6484 34.5207 21.6484C33.8966 21.7884 33.4125 22.2725 33.4125 22.8278ZM36.8115 22.4813L37.5748 29.3504L40.004 29.0743L39.2406 22.2029C39.171 21.6492 38.6166 21.2331 37.9221 21.3723C37.2283 21.3723 36.7426 21.926 36.8115 22.4813ZM40.1424 22.1356L40.905 29.0047L43.3341 28.7279L42.5716 21.8572C42.502 21.3035 41.9467 20.8874 41.253 20.957C40.6281 21.0266 40.1424 21.5099 40.1424 22.1356ZM43.5414 21.718L44.3055 28.5871L46.7347 28.3806L45.9698 21.5092C45.901 20.8858 45.3465 20.5401 44.6512 20.609C43.959 20.6794 43.4726 21.1635 43.5414 21.718ZM46.8731 21.3723L47.706 28.2414L50.0633 27.9638L49.3703 21.0939C49.2319 20.5409 48.6758 20.1225 47.9829 20.2601C47.358 20.2594 46.8731 20.817 46.8731 21.3723ZM18.8397 37.4686L19.9495 47.8086L56.7955 43.784L55.6857 33.4455L18.8397 37.4686ZM20.436 52.3878L21.6162 62.7278L58.4614 58.7016L57.282 48.3639L20.436 52.3878ZM22.1011 67.307L23.2116 77.6471L60.0553 73.6216L58.9455 63.2824L22.1011 67.307ZM23.6965 82.1543L24.8759 92.5647L61.6516 88.5401L60.5426 78.132L23.6965 82.1543ZM25.3624 97.0743L27.722 119.002C28.2772 118.86 28.8318 118.723 29.4575 118.515L27.6524 102.486C27.5139 100.892 28.9022 99.5035 30.8457 99.2266C32.7876 99.017 34.4527 100.126 34.5927 101.793L36.257 117.198C36.8811 117.127 37.4364 117.058 38.0612 116.988L36.3962 101.585C36.2577 99.9884 37.6452 98.5329 39.5183 98.3233C41.3922 98.1129 43.1269 99.2259 43.2653 100.822L45.0016 116.504C45.5561 116.434 46.1106 116.434 46.5962 116.434H46.8043L45.0696 100.612C44.9312 99.017 46.3194 97.56 48.1917 97.3504C50.1352 97.1423 51.8003 98.2537 52.0083 99.8484L53.8118 116.781C54.4367 116.85 55.0608 116.918 55.6857 116.988L53.8118 99.6411C53.6038 98.1129 55.0608 96.5878 56.9347 96.3798C58.8079 96.1725 60.5441 97.2815 60.6825 98.9458L62.8325 118.306C63.527 118.443 64.2903 118.651 64.9841 118.86L62.2084 93.0504L25.3624 97.0743Z" fill="#009EE2"/>
</g>
<defs>
<filter id="filter0_d_0_18" x="0.0612793" y="0" width="245.169" height="144" filterUnits="userSpaceOnUse" color-interpolation-filters="sRGB">
<feFlood flood-opacity="0" result="BackgroundImageFix"/>
<feColorMatrix in="SourceAlpha" type="matrix" values="0 0 0 0 0 0 0 0 0 0 0 0 0 0 0 0 0 0 127 0" result="hardAlpha"/>
<feOffset dy="4"/>
<feGaussianBlur stdDeviation="2"/>
<feComposite in2="hardAlpha" operator="out"/>
<feColorMatrix type="matrix" values="0 0 0 0 0 0 0 0 0 0 0 0 0 0 0 0 0 0 0.25 0"/>
<feBlend mode="normal" in2="BackgroundImageFix" result="effect1_dropShadow_0_18"/>
<feBlend mode="normal" in="SourceGraphic" in2="effect1_dropShadow_0_18" result="shape"/>
</filter>
</defs>
</svg>
