<svg width="5157" height="960" viewBox="0 0 5157 960" fill="none" xmlns="http://www.w3.org/2000/svg">
<rect width="5157" height="960" fill="#E5E5E5"/>
<g clip-path="url(#clip0_3_2)">
<rect width="1600" height="960" fill="#A7D7C5"/>
<rect x="907" y="873.33" width="750" height="750" rx="160" transform="rotate(-45 907 873.33)" fill="#C1E3D6"/>
<rect x="-411" y="79.3301" width="750" height="750" rx="160" transform="rotate(-45 -411 79.3301)" fill="#C1E3D6"/>
</g>
<rect x="4702" y="489" width="455" height="455" rx="32" fill="#F6FBF9"/>
<path d="M4783.89 544.168C4785.33 544.168 4786.58 544.348 4787.64 544.708C4788.69 545.044 4789.61 545.524 4790.37 546.148C4791.89 547.372 4792.87 549.088 4793.33 551.296L4788.79 552.124C4788.41 550.9 4787.81 549.916 4786.99 549.172C4786.2 548.404 4785.2 548.02 4784 548.02C4782.37 548.02 4781.05 548.704 4780.04 550.072C4778.96 551.56 4778.42 553.624 4778.42 556.264C4778.42 558.88 4778.9 560.932 4779.86 562.42C4780.82 563.884 4782.13 564.616 4783.79 564.616C4785.44 564.616 4786.69 564.22 4787.53 563.428C4788.37 562.612 4788.79 561.568 4788.79 560.296H4793.36C4793.36 562.912 4792.52 564.94 4790.84 566.38C4789.19 567.796 4786.91 568.504 4784 568.504C4780.91 568.504 4778.45 567.424 4776.62 565.264C4774.77 563.056 4773.85 560.056 4773.85 556.264C4773.85 552.424 4774.8 549.424 4776.69 547.264C4778.52 545.2 4780.92 544.168 4783.89 544.168ZM4802.57 553.96C4803.63 551.44 4805.21 550.18 4807.32 550.18C4807.73 550.18 4808.25 550.264 4808.87 550.432L4808.8 554.68C4808.13 554.536 4807.47 554.464 4806.82 554.464C4803.99 554.464 4802.57 556.42 4802.57 560.332V568H4798.32V550.468H4802.57V553.96ZM4825.5 552.592C4826.1 553.36 4826.55 554.248 4826.84 555.256C4827.15 556.264 4827.3 557.188 4827.3 558.028C4827.3 558.868 4827.26 559.624 4827.16 560.296H4815.86C4815.9 561.712 4816.25 562.864 4816.9 563.752C4817.55 564.64 4818.53 565.084 4819.85 565.084C4821.6 565.084 4822.65 564.316 4822.98 562.78H4827.27C4826.98 564.532 4826.18 565.912 4824.86 566.92C4823.49 567.976 4821.82 568.504 4819.85 568.504C4817.55 568.504 4815.62 567.664 4814.06 565.984C4812.45 564.232 4811.64 561.988 4811.64 559.252C4811.64 556.444 4812.45 554.188 4814.06 552.484C4815.59 550.852 4817.52 550.036 4819.85 550.036C4822.28 550.036 4824.16 550.888 4825.5 552.592ZM4819.89 553.42C4818.69 553.42 4817.75 553.816 4817.08 554.608C4816.41 555.376 4816.01 556.372 4815.89 557.596H4823.34C4823.34 555.7 4822.74 554.428 4821.54 553.78C4821.09 553.54 4820.54 553.42 4819.89 553.42ZM4838.15 557.776C4839.54 557.776 4841.15 558.004 4842.97 558.46V556.732C4842.97 555.508 4842.72 554.608 4842.22 554.032C4841.74 553.432 4840.93 553.132 4839.81 553.132C4838.7 553.132 4837.85 553.36 4837.25 553.816C4836.65 554.248 4836.35 554.872 4836.35 555.688H4831.71C4831.71 553.696 4832.4 552.256 4833.79 551.368C4835.21 550.48 4837.18 550.036 4839.7 550.036C4843.3 550.036 4845.63 551.296 4846.68 553.816C4847.04 554.68 4847.22 555.7 4847.22 556.876V568H4843.51L4843.19 565.66C4842.06 567.556 4840.33 568.504 4838.01 568.504C4835.75 568.504 4834 567.952 4832.75 566.848C4831.6 565.792 4831.02 564.46 4831.02 562.852C4831.02 561.22 4831.66 559.972 4832.93 559.108C4834.2 558.22 4835.94 557.776 4838.15 557.776ZM4842.97 561.16C4841.56 560.776 4840.24 560.584 4839.01 560.584C4836.71 560.584 4835.56 561.352 4835.56 562.888C4835.56 563.536 4835.82 564.1 4836.35 564.58C4836.88 565.036 4837.72 565.264 4838.87 565.264C4840.05 565.264 4841.01 564.88 4841.75 564.112C4842.52 563.32 4842.93 562.336 4842.97 561.16ZM4863.28 567.568C4861.69 568.192 4860.44 568.504 4859.53 568.504C4858.62 568.504 4857.82 568.396 4857.12 568.18C4856.45 567.964 4855.85 567.64 4855.32 567.208C4854.22 566.224 4853.66 564.868 4853.66 563.14V553.348H4851.22V550.504H4853.66V545.896H4857.91V550.504H4862.66V553.348H4857.91V562.996C4857.91 564.436 4858.6 565.156 4859.96 565.156C4860.66 565.156 4861.56 564.964 4862.66 564.58L4863.28 567.568ZM4879.82 552.592C4880.42 553.36 4880.86 554.248 4881.15 555.256C4881.46 556.264 4881.62 557.188 4881.62 558.028C4881.62 558.868 4881.57 559.624 4881.48 560.296H4870.17C4870.22 561.712 4870.57 562.864 4871.22 563.752C4871.86 564.64 4872.85 565.084 4874.17 565.084C4875.92 565.084 4876.96 564.316 4877.3 562.78H4881.58C4881.3 564.532 4880.49 565.912 4879.17 566.92C4877.8 567.976 4876.14 568.504 4874.17 568.504C4871.86 568.504 4869.93 567.664 4868.37 565.984C4866.76 564.232 4865.96 561.988 4865.96 559.252C4865.96 556.444 4866.76 554.188 4868.37 552.484C4869.91 550.852 4871.84 550.036 4874.17 550.036C4876.59 550.036 4878.48 550.888 4879.82 552.592ZM4874.2 553.42C4873 553.42 4872.07 553.816 4871.4 554.608C4870.72 555.376 4870.33 556.372 4870.21 557.596H4877.66C4877.66 555.7 4877.06 554.428 4875.86 553.78C4875.4 553.54 4874.85 553.42 4874.2 553.42ZM4901.21 544.636H4906.54L4914.21 568H4909.71L4908.09 562.96H4899.41L4897.75 568H4893.25L4901.21 544.636ZM4900.49 559.756H4907.04L4903.8 549.712L4900.49 559.756ZM4922.52 553.528C4923.67 551.2 4925.52 550.036 4928.07 550.036C4930.23 550.036 4931.85 550.744 4932.93 552.16C4934.03 553.576 4934.58 555.448 4934.58 557.776V568H4930.33V557.776C4930.33 556.48 4930.02 555.508 4929.4 554.86C4928.77 554.188 4927.9 553.852 4926.77 553.852C4925.64 553.852 4924.67 554.356 4923.85 555.364C4923.06 556.372 4922.64 557.884 4922.59 559.9V568H4918.35V550.504H4922.05L4922.52 553.528ZM4955.28 544.636H4960.61L4968.28 568H4963.78L4962.16 562.96H4953.48L4951.83 568H4947.33L4955.28 544.636ZM4954.56 559.756H4961.11L4957.87 549.712L4954.56 559.756ZM4979.08 550.036C4980.18 550.036 4981.16 550.228 4982.03 550.612C4982.92 550.972 4983.66 551.452 4984.26 552.052C4985.46 553.204 4986.17 554.656 4986.38 556.408L4982.1 556.516C4981.91 555.748 4981.55 555.112 4981.02 554.608C4980.52 554.104 4979.93 553.852 4979.26 553.852C4978.58 553.852 4978.01 553.96 4977.53 554.176C4977.05 554.368 4976.63 554.68 4976.27 555.112C4975.45 556.12 4975.04 557.512 4975.04 559.288C4975.04 561.064 4975.43 562.408 4976.2 563.32C4976.96 564.208 4977.89 564.652 4978.97 564.652C4980.07 564.652 4980.86 564.4 4981.34 563.896C4981.85 563.368 4982.1 562.66 4982.1 561.772H4986.38C4986.38 563.692 4985.75 565.288 4984.48 566.56C4983.18 567.856 4981.37 568.504 4979.04 568.504C4976.74 568.504 4974.8 567.664 4973.24 565.984C4971.59 564.184 4970.76 561.94 4970.76 559.252C4970.76 556.42 4971.59 554.152 4973.24 552.448C4974.8 550.84 4976.75 550.036 4979.08 550.036ZM4998.17 550.036C4999.27 550.036 5000.25 550.228 5001.12 550.612C5002.01 550.972 5002.75 551.452 5003.35 552.052C5004.55 553.204 5005.26 554.656 5005.47 556.408L5001.19 556.516C5001 555.748 5000.64 555.112 5000.11 554.608C4999.61 554.104 4999.02 553.852 4998.35 553.852C4997.67 553.852 4997.1 553.96 4996.62 554.176C4996.14 554.368 4995.72 554.68 4995.36 555.112C4994.54 556.12 4994.13 557.512 4994.13 559.288C4994.13 561.064 4994.52 562.408 4995.29 563.32C4996.05 564.208 4996.98 564.652 4998.06 564.652C4999.16 564.652 4999.95 564.4 5000.43 563.896C5000.94 563.368 5001.19 562.66 5001.19 561.772H5005.47C5005.47 563.692 5004.84 565.288 5003.57 566.56C5002.27 567.856 5000.46 568.504 4998.13 568.504C4995.83 568.504 4993.89 567.664 4992.33 565.984C4990.68 564.184 4989.85 561.94 4989.85 559.252C4989.85 556.42 4990.68 554.152 4992.33 552.448C4993.89 550.84 4995.84 550.036 4998.17 550.036ZM5017.47 550.036C5018.65 550.036 5019.75 550.228 5020.78 550.612C5021.82 550.972 5022.7 551.536 5023.45 552.304C5025.1 553.984 5025.93 556.312 5025.93 559.288C5025.93 562.216 5025.1 564.52 5023.45 566.2C5021.96 567.736 5019.97 568.504 5017.47 568.504C5014.98 568.504 5012.96 567.736 5011.42 566.2C5009.77 564.544 5008.94 562.24 5008.94 559.288C5008.94 556.288 5009.77 553.96 5011.42 552.304C5012.94 550.792 5014.95 550.036 5017.47 550.036ZM5021.68 559.252C5021.68 557.404 5021.32 556.024 5020.6 555.112C5019.88 554.176 5018.88 553.708 5017.58 553.708C5016.31 553.708 5015.26 554.176 5014.45 555.112C5013.63 556.024 5013.22 557.404 5013.22 559.252C5013.22 561.1 5013.58 562.492 5014.3 563.428C5015.05 564.34 5016.06 564.796 5017.33 564.796C5018.6 564.796 5019.64 564.34 5020.46 563.428C5021.28 562.492 5021.68 561.1 5021.68 559.252ZM5042.61 564.832C5041.51 567.16 5039.73 568.324 5037.29 568.324C5034.19 568.324 5032.15 567.112 5031.17 564.688C5030.81 563.848 5030.63 562.828 5030.63 561.628V550.468H5034.87V561.196C5034.87 562.348 5035.15 563.212 5035.7 563.788C5036.25 564.34 5036.93 564.616 5037.72 564.616C5038.53 564.616 5039.22 564.508 5039.77 564.292C5040.32 564.052 5040.8 563.704 5041.21 563.248C5042.1 562.216 5042.57 560.836 5042.61 559.108V550.468H5046.86V568H5042.61V564.832ZM5057.73 553.528C5058.88 551.2 5060.73 550.036 5063.28 550.036C5065.44 550.036 5067.06 550.744 5068.14 552.16C5069.24 553.576 5069.79 555.448 5069.79 557.776V568H5065.54V557.776C5065.54 556.48 5065.23 555.508 5064.61 554.86C5063.98 554.188 5063.11 553.852 5061.98 553.852C5060.85 553.852 5059.88 554.356 5059.06 555.364C5058.27 556.372 5057.85 557.884 5057.8 559.9V568H5053.56V550.504H5057.26L5057.73 553.528ZM5085.85 567.568C5084.27 568.192 5083.02 568.504 5082.11 568.504C5081.19 568.504 5080.39 568.396 5079.69 568.18C5079.02 567.964 5078.42 567.64 5077.89 567.208C5076.79 566.224 5076.24 564.868 5076.24 563.14V553.348H5073.79V550.504H5076.24V545.896H5080.49V550.504H5085.24V553.348H5080.49V562.996C5080.49 564.436 5081.17 565.156 5082.54 565.156C5083.23 565.156 5084.13 564.964 5085.24 564.58L5085.85 567.568Z" fill="#212B27"/>
<path d="M4789.14 589.4C4790.15 589.4 4790.96 589.655 4791.57 590.165C4792.19 590.665 4792.61 591.32 4792.84 592.13L4791.57 592.385C4791.37 591.795 4791.05 591.33 4790.62 590.99C4790.2 590.64 4789.71 590.465 4789.14 590.465C4788.35 590.465 4787.69 590.795 4787.17 591.455C4786.65 592.115 4786.39 593.035 4786.39 594.215C4786.39 595.385 4786.62 596.325 4787.08 597.035C4787.55 597.745 4788.24 598.1 4789.14 598.1C4789.89 598.1 4790.48 597.905 4790.91 597.515C4791.35 597.115 4791.57 596.59 4791.57 595.94H4792.84C4792.84 596.93 4792.5 597.715 4791.82 598.295C4791.15 598.875 4790.23 599.165 4789.05 599.165C4787.88 599.165 4786.93 598.715 4786.2 597.815C4785.48 596.915 4785.12 595.71 4785.12 594.2C4785.12 592.69 4785.49 591.515 4786.24 590.675C4786.99 589.825 4787.96 589.4 4789.14 589.4ZM4797.99 592.835C4796.86 592.835 4796.28 593.725 4796.24 595.505V599H4795.05V591.815H4796.24V593.195C4796.6 592.195 4797.23 591.695 4798.14 591.695C4798.43 591.695 4798.71 591.74 4798.97 591.83L4798.91 592.985C4798.61 592.885 4798.3 592.835 4797.99 592.835ZM4803.26 598.205C4804.25 598.205 4804.81 597.77 4804.95 596.9H4806.17C4806.06 597.62 4805.74 598.18 4805.21 598.58C4804.69 598.97 4804.04 599.165 4803.26 599.165C4802.3 599.165 4801.52 598.825 4800.92 598.145C4800.32 597.455 4800.02 596.54 4800.02 595.4C4800.02 594.26 4800.32 593.35 4800.92 592.67C4801.53 591.99 4802.33 591.65 4803.33 591.65C4804.34 591.65 4805.09 592.04 4805.58 592.82C4806.08 593.6 4806.26 594.55 4806.11 595.67H4801.2C4801.2 596.41 4801.38 597.02 4801.74 597.5C4802.1 597.97 4802.61 598.205 4803.26 598.205ZM4804.13 592.775C4803.9 592.655 4803.62 592.595 4803.29 592.595C4802.68 592.595 4802.19 592.805 4801.83 593.225C4801.48 593.635 4801.28 594.15 4801.22 594.77H4805.04C4805.04 593.77 4804.74 593.105 4804.13 592.775ZM4812.94 594.35C4812.94 593.7 4812.81 593.235 4812.54 592.955C4812.27 592.675 4811.87 592.535 4811.35 592.535C4810.84 592.535 4810.43 592.64 4810.11 592.85C4809.8 593.05 4809.64 593.37 4809.64 593.81H4808.34C4808.34 592.71 4808.93 592.03 4810.11 591.77C4810.47 591.69 4810.86 591.65 4811.28 591.65C4812.17 591.65 4812.86 591.875 4813.36 592.325C4813.86 592.775 4814.11 593.46 4814.11 594.38V599H4813.09L4812.97 597.8C4812.53 598.71 4811.74 599.165 4810.59 599.165C4809.82 599.165 4809.2 598.95 4808.73 598.52C4808.27 598.09 4808.04 597.555 4808.04 596.915C4808.04 596.275 4808.29 595.775 4808.8 595.415C4809.32 595.055 4809.97 594.875 4810.74 594.875C4811.51 594.875 4812.24 595.005 4812.94 595.265V594.35ZM4812.94 596.015C4812.23 595.815 4811.61 595.715 4811.08 595.715C4810.55 595.715 4810.12 595.81 4809.79 596C4809.46 596.19 4809.3 596.49 4809.3 596.9C4809.3 597.8 4809.81 598.25 4810.83 598.25C4811.41 598.25 4811.9 598.045 4812.31 597.635C4812.73 597.215 4812.94 596.675 4812.94 596.015ZM4820.64 598.79C4819.78 599.19 4819 599.275 4818.29 599.045C4817.78 598.885 4817.42 598.55 4817.21 598.04C4817.1 597.79 4817.04 597.49 4817.04 597.14V592.73H4815.89V591.83H4817.04V589.835H4818.21V591.83H4820.46V592.73H4818.21V597.125C4818.21 597.855 4818.55 598.22 4819.23 598.22C4819.6 598.22 4820.02 598.13 4820.48 597.95L4820.64 598.79ZM4825.01 598.205C4826 598.205 4826.56 597.77 4826.7 596.9H4827.92C4827.81 597.62 4827.49 598.18 4826.96 598.58C4826.44 598.97 4825.79 599.165 4825.01 599.165C4824.05 599.165 4823.27 598.825 4822.67 598.145C4822.07 597.455 4821.77 596.54 4821.77 595.4C4821.77 594.26 4822.07 593.35 4822.67 592.67C4823.28 591.99 4824.08 591.65 4825.08 591.65C4826.09 591.65 4826.84 592.04 4827.33 592.82C4827.83 593.6 4828.01 594.55 4827.86 595.67H4822.95C4822.95 596.41 4823.13 597.02 4823.49 597.5C4823.85 597.97 4824.36 598.205 4825.01 598.205ZM4825.88 592.775C4825.65 592.655 4825.37 592.595 4825.04 592.595C4824.43 592.595 4823.94 592.805 4823.58 593.225C4823.23 593.635 4823.03 594.15 4822.97 594.77H4826.79C4826.79 593.77 4826.49 593.105 4825.88 592.775ZM4838.27 594.35C4838.27 593.7 4838.13 593.235 4837.86 592.955C4837.59 592.675 4837.2 592.535 4836.68 592.535C4836.17 592.535 4835.75 592.64 4835.43 592.85C4835.12 593.05 4834.97 593.37 4834.97 593.81H4833.66C4833.66 592.71 4834.25 592.03 4835.43 591.77C4835.79 591.69 4836.18 591.65 4836.6 591.65C4837.49 591.65 4838.19 591.875 4838.69 592.325C4839.19 592.775 4839.44 593.46 4839.44 594.38V599H4838.42L4838.3 597.8C4837.86 598.71 4837.06 599.165 4835.91 599.165C4835.14 599.165 4834.52 598.95 4834.05 598.52C4833.59 598.09 4833.36 597.555 4833.36 596.915C4833.36 596.275 4833.62 595.775 4834.13 595.415C4834.65 595.055 4835.29 594.875 4836.06 594.875C4836.83 594.875 4837.57 595.005 4838.27 595.265V594.35ZM4838.27 596.015C4837.56 595.815 4836.94 595.715 4836.41 595.715C4835.88 595.715 4835.45 595.81 4835.12 596C4834.79 596.19 4834.62 596.49 4834.62 596.9C4834.62 597.8 4835.13 598.25 4836.15 598.25C4836.73 598.25 4837.23 598.045 4837.64 597.635C4838.06 597.215 4838.27 596.675 4838.27 596.015ZM4843.36 593.21C4843.83 592.17 4844.64 591.65 4845.78 591.65C4846.63 591.65 4847.29 591.93 4847.76 592.49C4848.24 593.05 4848.48 593.815 4848.48 594.785V599H4847.31V594.785C4847.31 594.095 4847.14 593.575 4846.81 593.225C4846.49 592.875 4846.03 592.7 4845.43 592.7C4844.83 592.7 4844.35 592.945 4843.98 593.435C4843.61 593.925 4843.41 594.605 4843.39 595.475V599H4842.21V591.83H4843.23L4843.36 593.21ZM4859.27 594.35C4859.27 593.7 4859.14 593.235 4858.87 592.955C4858.6 592.675 4858.2 592.535 4857.68 592.535C4857.17 592.535 4856.76 592.64 4856.44 592.85C4856.13 593.05 4855.97 593.37 4855.97 593.81H4854.67C4854.67 592.71 4855.26 592.03 4856.44 591.77C4856.8 591.69 4857.19 591.65 4857.61 591.65C4858.5 591.65 4859.19 591.875 4859.69 592.325C4860.19 592.775 4860.44 593.46 4860.44 594.38V599H4859.42L4859.3 597.8C4858.86 598.71 4858.07 599.165 4856.92 599.165C4856.15 599.165 4855.53 598.95 4855.06 598.52C4854.6 598.09 4854.37 597.555 4854.37 596.915C4854.37 596.275 4854.62 595.775 4855.13 595.415C4855.65 595.055 4856.3 594.875 4857.07 594.875C4857.84 594.875 4858.57 595.005 4859.27 595.265V594.35ZM4859.27 596.015C4858.56 595.815 4857.94 595.715 4857.41 595.715C4856.88 595.715 4856.45 595.81 4856.12 596C4855.79 596.19 4855.63 596.49 4855.63 596.9C4855.63 597.8 4856.14 598.25 4857.16 598.25C4857.74 598.25 4858.23 598.045 4858.64 597.635C4859.06 597.215 4859.27 596.675 4859.27 596.015ZM4865.61 591.65C4866.46 591.65 4867.14 591.87 4867.64 592.31C4868.14 592.74 4868.46 593.28 4868.61 593.93L4867.41 594.035C4867.28 593.615 4867.07 593.29 4866.78 593.06C4866.49 592.82 4866.17 592.7 4865.82 592.7C4865.18 592.7 4864.66 592.94 4864.26 593.42C4863.87 593.9 4863.68 594.555 4863.68 595.385C4863.68 596.205 4863.87 596.865 4864.25 597.365C4864.64 597.865 4865.12 598.115 4865.69 598.115C4866.27 598.115 4866.7 597.985 4866.98 597.725C4867.27 597.455 4867.41 597.075 4867.41 596.585H4868.63C4868.63 597.355 4868.36 597.98 4867.82 598.46C4867.29 598.93 4866.59 599.165 4865.73 599.165C4864.82 599.165 4864.05 598.82 4863.41 598.13C4862.78 597.44 4862.46 596.525 4862.46 595.385C4862.46 594.235 4862.78 593.325 4863.41 592.655C4864.04 591.985 4864.77 591.65 4865.61 591.65ZM4873.33 591.65C4874.18 591.65 4874.86 591.87 4875.36 592.31C4875.86 592.74 4876.18 593.28 4876.33 593.93L4875.13 594.035C4875 593.615 4874.79 593.29 4874.5 593.06C4874.21 592.82 4873.89 592.7 4873.54 592.7C4872.9 592.7 4872.38 592.94 4871.98 593.42C4871.59 593.9 4871.4 594.555 4871.4 595.385C4871.4 596.205 4871.59 596.865 4871.97 597.365C4872.36 597.865 4872.84 598.115 4873.41 598.115C4873.99 598.115 4874.42 597.985 4874.7 597.725C4874.99 597.455 4875.13 597.075 4875.13 596.585H4876.35C4876.35 597.355 4876.08 597.98 4875.54 598.46C4875.01 598.93 4874.31 599.165 4873.45 599.165C4872.54 599.165 4871.77 598.82 4871.13 598.13C4870.5 597.44 4870.18 596.525 4870.18 595.385C4870.18 594.235 4870.5 593.325 4871.13 592.655C4871.76 591.985 4872.49 591.65 4873.33 591.65ZM4881.25 591.65C4882.25 591.65 4883.05 591.975 4883.66 592.625C4884.28 593.275 4884.59 594.205 4884.59 595.415C4884.59 596.615 4884.28 597.54 4883.66 598.19C4883.05 598.84 4882.25 599.165 4881.25 599.165C4880.25 599.165 4879.44 598.84 4878.82 598.19C4878.21 597.54 4877.9 596.615 4877.9 595.415C4877.9 594.205 4878.21 593.275 4878.82 592.625C4879.44 591.975 4880.25 591.65 4881.25 591.65ZM4883.39 595.415C4883.39 594.555 4883.21 593.885 4882.85 593.405C4882.49 592.915 4881.96 592.67 4881.26 592.67C4880.57 592.67 4880.04 592.915 4879.67 593.405C4879.3 593.885 4879.12 594.555 4879.12 595.415C4879.12 596.265 4879.29 596.935 4879.64 597.425C4879.99 597.905 4880.51 598.145 4881.2 598.145C4881.9 598.145 4882.44 597.905 4882.82 597.425C4883.2 596.935 4883.39 596.265 4883.39 595.415ZM4891.73 597.575C4891.24 598.615 4890.45 599.135 4889.35 599.135C4888.54 599.135 4887.88 598.91 4887.38 598.46C4886.89 598.01 4886.65 597.315 4886.65 596.375V591.815H4887.83V596.285C4887.83 597.495 4888.39 598.1 4889.51 598.1C4890.16 598.1 4890.69 597.85 4891.09 597.35C4891.5 596.85 4891.71 596.21 4891.73 595.43V591.815H4892.92V599H4891.73V597.575ZM4897.09 593.21C4897.56 592.17 4898.37 591.65 4899.51 591.65C4900.36 591.65 4901.02 591.93 4901.49 592.49C4901.97 593.05 4902.21 593.815 4902.21 594.785V599H4901.04V594.785C4901.04 594.095 4900.87 593.575 4900.54 593.225C4900.22 592.875 4899.76 592.7 4899.16 592.7C4898.56 592.7 4898.08 592.945 4897.71 593.435C4897.34 593.925 4897.14 594.605 4897.12 595.475V599H4895.94V591.83H4896.96L4897.09 593.21ZM4908.74 598.79C4907.88 599.19 4907.1 599.275 4906.39 599.045C4905.88 598.885 4905.52 598.55 4905.31 598.04C4905.2 597.79 4905.14 597.49 4905.14 597.14V592.73H4903.99V591.83H4905.14V589.835H4906.31V591.83H4908.56V592.73H4906.31V597.125C4906.31 597.855 4906.65 598.22 4907.33 598.22C4907.7 598.22 4908.12 598.13 4908.58 597.95L4908.74 598.79ZM4917.95 598.79C4917.09 599.19 4916.31 599.275 4915.6 599.045C4915.09 598.885 4914.73 598.55 4914.52 598.04C4914.41 597.79 4914.35 597.49 4914.35 597.14V592.73H4913.2V591.83H4914.35V589.835H4915.52V591.83H4917.77V592.73H4915.52V597.125C4915.52 597.855 4915.86 598.22 4916.54 598.22C4916.91 598.22 4917.33 598.13 4917.79 597.95L4917.95 598.79ZM4922.42 591.65C4923.42 591.65 4924.23 591.975 4924.84 592.625C4925.46 593.275 4925.77 594.205 4925.77 595.415C4925.77 596.615 4925.46 597.54 4924.84 598.19C4924.23 598.84 4923.42 599.165 4922.42 599.165C4921.42 599.165 4920.61 598.84 4919.99 598.19C4919.38 597.54 4919.08 596.615 4919.08 595.415C4919.08 594.205 4919.38 593.275 4919.99 592.625C4920.61 591.975 4921.42 591.65 4922.42 591.65ZM4924.57 595.415C4924.57 594.555 4924.39 593.885 4924.03 593.405C4923.67 592.915 4923.14 592.67 4922.44 592.67C4921.75 592.67 4921.22 592.915 4920.85 593.405C4920.48 593.885 4920.29 594.555 4920.29 595.415C4920.29 596.265 4920.47 596.935 4920.82 597.425C4921.17 597.905 4921.69 598.145 4922.38 598.145C4923.08 598.145 4923.62 597.905 4924 597.425C4924.38 596.935 4924.57 596.265 4924.57 595.415ZM4934.08 598.205C4935.07 598.205 4935.64 597.77 4935.78 596.9H4936.99C4936.88 597.62 4936.56 598.18 4936.03 598.58C4935.51 598.97 4934.86 599.165 4934.08 599.165C4933.12 599.165 4932.34 598.825 4931.74 598.145C4931.14 597.455 4930.84 596.54 4930.84 595.4C4930.84 594.26 4931.14 593.35 4931.74 592.67C4932.35 591.99 4933.16 591.65 4934.16 591.65C4935.17 591.65 4935.92 592.04 4936.41 592.82C4936.91 593.6 4937.08 594.55 4936.93 595.67H4932.03C4932.03 596.41 4932.21 597.02 4932.57 597.5C4932.93 597.97 4933.43 598.205 4934.08 598.205ZM4934.95 592.775C4934.72 592.655 4934.44 592.595 4934.11 592.595C4933.5 592.595 4933.02 592.805 4932.66 593.225C4932.31 593.635 4932.1 594.15 4932.04 594.77H4935.87C4935.87 593.77 4935.56 593.105 4934.95 592.775ZM4940.47 593.21C4940.94 592.17 4941.74 591.65 4942.88 591.65C4943.73 591.65 4944.39 591.93 4944.86 592.49C4945.34 593.05 4945.58 593.815 4945.58 594.785V599H4944.41V594.785C4944.41 594.095 4944.25 593.575 4943.92 593.225C4943.6 592.875 4943.14 592.7 4942.54 592.7C4941.94 592.7 4941.45 592.945 4941.08 593.435C4940.71 593.925 4940.52 594.605 4940.5 595.475V599H4939.31V591.83H4940.33L4940.47 593.21ZM4949.25 590.135C4949.01 590.135 4948.82 590.07 4948.68 589.94C4948.55 589.8 4948.48 589.62 4948.48 589.4C4948.48 589.17 4948.55 588.99 4948.68 588.86C4948.82 588.72 4949.01 588.65 4949.25 588.65C4949.49 588.65 4949.68 588.72 4949.82 588.86C4949.97 588.99 4950.04 589.17 4950.04 589.4C4950.04 589.62 4949.97 589.8 4949.82 589.94C4949.68 590.07 4949.49 590.135 4949.25 590.135ZM4947.34 601.655C4948.22 601.655 4948.66 601.105 4948.66 600.005V591.8H4949.85V600.005C4949.85 601.375 4949.4 602.22 4948.5 602.54C4948.22 602.64 4947.91 602.69 4947.57 602.69C4946.95 602.69 4946.28 602.505 4945.56 602.135L4945.62 601.1C4946.25 601.47 4946.82 601.655 4947.34 601.655ZM4955.66 591.65C4956.66 591.65 4957.47 591.975 4958.08 592.625C4958.7 593.275 4959.01 594.205 4959.01 595.415C4959.01 596.615 4958.7 597.54 4958.08 598.19C4957.47 598.84 4956.66 599.165 4955.66 599.165C4954.66 599.165 4953.85 598.84 4953.23 598.19C4952.62 597.54 4952.32 596.615 4952.32 595.415C4952.32 594.205 4952.62 593.275 4953.23 592.625C4953.85 591.975 4954.66 591.65 4955.66 591.65ZM4957.81 595.415C4957.81 594.555 4957.63 593.885 4957.27 593.405C4956.91 592.915 4956.38 592.67 4955.68 592.67C4954.99 592.67 4954.46 592.915 4954.09 593.405C4953.72 593.885 4953.53 594.555 4953.53 595.415C4953.53 596.265 4953.71 596.935 4954.06 597.425C4954.41 597.905 4954.93 598.145 4955.62 598.145C4956.32 598.145 4956.86 597.905 4957.24 597.425C4957.62 596.935 4957.81 596.265 4957.81 595.415ZM4959.83 601.085C4960.32 601.465 4960.83 601.655 4961.37 601.655C4961.77 601.655 4962.12 601.455 4962.41 601.055C4962.62 600.765 4962.81 600.325 4962.98 599.735L4963.19 599L4960.25 591.83H4961.57L4963.74 597.545L4965.44 591.83H4966.64L4963.95 600.425C4963.72 601.155 4963.42 601.715 4963.04 602.105C4962.67 602.495 4962.19 602.69 4961.61 602.69C4961.04 602.69 4960.45 602.515 4959.83 602.165V601.085ZM4976.55 594.35C4976.55 593.7 4976.41 593.235 4976.14 592.955C4975.87 592.675 4975.48 592.535 4974.96 592.535C4974.45 592.535 4974.03 592.64 4973.71 592.85C4973.4 593.05 4973.25 593.37 4973.25 593.81H4971.94C4971.94 592.71 4972.53 592.03 4973.71 591.77C4974.07 591.69 4974.46 591.65 4974.88 591.65C4975.77 591.65 4976.47 591.875 4976.97 592.325C4977.47 592.775 4977.72 593.46 4977.72 594.38V599H4976.7L4976.58 597.8C4976.14 598.71 4975.34 599.165 4974.19 599.165C4973.42 599.165 4972.8 598.95 4972.33 598.52C4971.87 598.09 4971.64 597.555 4971.64 596.915C4971.64 596.275 4971.9 595.775 4972.41 595.415C4972.93 595.055 4973.57 594.875 4974.34 594.875C4975.11 594.875 4975.85 595.005 4976.55 595.265V594.35ZM4976.55 596.015C4975.84 595.815 4975.22 595.715 4974.69 595.715C4974.16 595.715 4973.73 595.81 4973.4 596C4973.07 596.19 4972.9 596.49 4972.9 596.9C4972.9 597.8 4973.41 598.25 4974.43 598.25C4975.01 598.25 4975.51 598.045 4975.92 597.635C4976.34 597.215 4976.55 596.675 4976.55 596.015ZM4980.5 588.785H4981.69V599H4980.5V588.785ZM4984.71 588.785H4985.89V599H4984.71V588.785ZM4996.24 598.79C4995.38 599.19 4994.59 599.275 4993.88 599.045C4993.37 598.885 4993.01 598.55 4992.8 598.04C4992.69 597.79 4992.64 597.49 4992.64 597.14V592.73H4991.48V591.83H4992.64V589.835H4993.81V591.83H4996.06V592.73H4993.81V597.125C4993.81 597.855 4994.15 598.22 4994.83 598.22C4995.2 598.22 4995.61 598.13 4996.07 597.95L4996.24 598.79ZM4999.31 593.15C4999.79 592.15 5000.58 591.65 5001.69 591.65C5002.54 591.65 5003.2 591.93 5003.67 592.49C5004.15 593.05 5004.39 593.815 5004.39 594.785V599H5003.22V594.785C5003.22 594.095 5003.06 593.575 5002.73 593.225C5002.41 592.875 5001.94 592.7 5001.33 592.7C5000.72 592.7 5000.23 592.96 4999.86 593.48C4999.49 593.99 4999.31 594.7 4999.31 595.61V599H4998.12V588.785H4999.31V593.15ZM5009.65 598.205C5010.64 598.205 5011.21 597.77 5011.35 596.9H5012.56C5012.45 597.62 5012.13 598.18 5011.6 598.58C5011.08 598.97 5010.43 599.165 5009.65 599.165C5008.69 599.165 5007.91 598.825 5007.31 598.145C5006.71 597.455 5006.41 596.54 5006.41 595.4C5006.41 594.26 5006.71 593.35 5007.31 592.67C5007.92 591.99 5008.73 591.65 5009.73 591.65C5010.74 591.65 5011.49 592.04 5011.98 592.82C5012.48 593.6 5012.65 594.55 5012.5 595.67H5007.6C5007.6 596.41 5007.78 597.02 5008.14 597.5C5008.5 597.97 5009 598.205 5009.65 598.205ZM5010.52 592.775C5010.29 592.655 5010.01 592.595 5009.68 592.595C5009.07 592.595 5008.59 592.805 5008.23 593.225C5007.88 593.635 5007.67 594.15 5007.61 594.77H5011.44C5011.44 593.77 5011.13 593.105 5010.52 592.775ZM5018.1 593.585C5018.1 592.995 5018.35 592.525 5018.85 592.175C5019.36 591.825 5020.04 591.65 5020.9 591.65C5021.76 591.65 5022.43 591.83 5022.91 592.19C5023.4 592.55 5023.66 593.005 5023.68 593.555H5022.52C5022.43 592.905 5021.88 592.58 5020.87 592.58C5020.38 592.58 5020 592.69 5019.73 592.91C5019.47 593.13 5019.34 593.37 5019.34 593.63C5019.34 593.88 5019.44 594.095 5019.64 594.275C5019.84 594.445 5020.16 594.595 5020.6 594.725L5022.04 595.205C5022.65 595.395 5023.12 595.64 5023.44 595.94C5023.77 596.23 5023.93 596.635 5023.93 597.155C5023.93 597.665 5023.67 598.13 5023.14 598.55C5022.61 598.96 5021.87 599.165 5020.92 599.165C5019.97 599.165 5019.23 598.955 5018.7 598.535C5018.17 598.105 5017.89 597.555 5017.86 596.885H5019C5019.02 597.335 5019.2 597.675 5019.54 597.905C5019.89 598.125 5020.32 598.235 5020.84 598.235C5021.36 598.235 5021.79 598.125 5022.13 597.905C5022.47 597.685 5022.64 597.425 5022.64 597.125C5022.64 596.815 5022.54 596.58 5022.34 596.42C5022.14 596.26 5021.82 596.12 5021.37 596L5019.97 595.535C5018.72 595.165 5018.1 594.515 5018.1 593.585ZM5028.84 598.205C5029.83 598.205 5030.4 597.77 5030.54 596.9H5031.75C5031.64 597.62 5031.32 598.18 5030.79 598.58C5030.27 598.97 5029.62 599.165 5028.84 599.165C5027.88 599.165 5027.1 598.825 5026.5 598.145C5025.9 597.455 5025.6 596.54 5025.6 595.4C5025.6 594.26 5025.9 593.35 5026.5 592.67C5027.11 591.99 5027.92 591.65 5028.92 591.65C5029.93 591.65 5030.68 592.04 5031.17 592.82C5031.67 593.6 5031.84 594.55 5031.69 595.67H5026.79C5026.79 596.41 5026.97 597.02 5027.33 597.5C5027.69 597.97 5028.19 598.205 5028.84 598.205ZM5029.71 592.775C5029.48 592.655 5029.2 592.595 5028.87 592.595C5028.26 592.595 5027.78 592.805 5027.42 593.225C5027.07 593.635 5026.86 594.15 5026.8 594.77H5030.63C5030.63 593.77 5030.32 593.105 5029.71 592.775ZM5037.01 592.835C5035.88 592.835 5035.3 593.725 5035.26 595.505V599H5034.07V591.815H5035.26V593.195C5035.62 592.195 5036.25 591.695 5037.16 591.695C5037.45 591.695 5037.73 591.74 5037.99 591.83L5037.93 592.985C5037.63 592.885 5037.32 592.835 5037.01 592.835ZM5039.89 591.83L5042.05 597.755L5044.22 591.83H5045.56L5042.71 599H5041.4L5038.55 591.83H5039.89ZM5047.42 591.815H5048.6V599H5047.42V591.815ZM5048 590.135C5047.76 590.135 5047.57 590.07 5047.43 589.94C5047.3 589.8 5047.24 589.62 5047.24 589.4C5047.24 589.17 5047.3 588.99 5047.43 588.86C5047.57 588.72 5047.76 588.65 5048 588.65C5048.24 588.65 5048.43 588.72 5048.57 588.86C5048.72 588.99 5048.8 589.17 5048.8 589.4C5048.8 589.62 5048.72 589.8 5048.57 589.94C5048.43 590.07 5048.24 590.135 5048 590.135ZM5054.21 591.65C5055.06 591.65 5055.74 591.87 5056.24 592.31C5056.74 592.74 5057.06 593.28 5057.21 593.93L5056.01 594.035C5055.88 593.615 5055.67 593.29 5055.38 593.06C5055.09 592.82 5054.77 592.7 5054.42 592.7C5053.78 592.7 5053.26 592.94 5052.86 593.42C5052.47 593.9 5052.28 594.555 5052.28 595.385C5052.28 596.205 5052.47 596.865 5052.85 597.365C5053.24 597.865 5053.72 598.115 5054.29 598.115C5054.87 598.115 5055.3 597.985 5055.58 597.725C5055.87 597.455 5056.01 597.075 5056.01 596.585H5057.23C5057.23 597.355 5056.96 597.98 5056.42 598.46C5055.89 598.93 5055.19 599.165 5054.33 599.165C5053.42 599.165 5052.65 598.82 5052.01 598.13C5051.38 597.44 5051.06 596.525 5051.06 595.385C5051.06 594.235 5051.38 593.325 5052.01 592.655C5052.64 591.985 5053.37 591.65 5054.21 591.65ZM5062.02 598.205C5063.01 598.205 5063.58 597.77 5063.72 596.9H5064.93C5064.82 597.62 5064.5 598.18 5063.97 598.58C5063.45 598.97 5062.8 599.165 5062.02 599.165C5061.06 599.165 5060.28 598.825 5059.68 598.145C5059.08 597.455 5058.78 596.54 5058.78 595.4C5058.78 594.26 5059.08 593.35 5059.68 592.67C5060.29 591.99 5061.1 591.65 5062.1 591.65C5063.11 591.65 5063.86 592.04 5064.35 592.82C5064.85 593.6 5065.02 594.55 5064.87 595.67H5059.97C5059.97 596.41 5060.15 597.02 5060.51 597.5C5060.87 597.97 5061.37 598.205 5062.02 598.205ZM5062.89 592.775C5062.66 592.655 5062.38 592.595 5062.05 592.595C5061.44 592.595 5060.96 592.805 5060.6 593.225C5060.25 593.635 5060.04 594.15 5059.98 594.77H5063.81C5063.81 593.77 5063.5 593.105 5062.89 592.775ZM5066.89 593.585C5066.89 592.995 5067.14 592.525 5067.64 592.175C5068.15 591.825 5068.84 591.65 5069.7 591.65C5070.56 591.65 5071.23 591.83 5071.71 592.19C5072.2 592.55 5072.45 593.005 5072.47 593.555H5071.32C5071.23 592.905 5070.68 592.58 5069.67 592.58C5069.18 592.58 5068.8 592.69 5068.53 592.91C5068.27 593.13 5068.14 593.37 5068.14 593.63C5068.14 593.88 5068.24 594.095 5068.44 594.275C5068.64 594.445 5068.96 594.595 5069.4 594.725L5070.84 595.205C5071.45 595.395 5071.91 595.64 5072.23 595.94C5072.56 596.23 5072.73 596.635 5072.73 597.155C5072.73 597.665 5072.46 598.13 5071.93 598.55C5071.4 598.96 5070.66 599.165 5069.71 599.165C5068.76 599.165 5068.02 598.955 5067.49 598.535C5066.96 598.105 5066.68 597.555 5066.65 596.885H5067.79C5067.81 597.335 5067.99 597.675 5068.33 597.905C5068.68 598.125 5069.12 598.235 5069.64 598.235C5070.16 598.235 5070.59 598.125 5070.93 597.905C5071.27 597.685 5071.44 597.425 5071.44 597.125C5071.44 596.815 5071.34 596.58 5071.14 596.42C5070.94 596.26 5070.61 596.12 5070.16 596L5068.77 595.535C5067.52 595.165 5066.89 594.515 5066.89 593.585ZM4847.17 610.83L4848.91 616.545L4850.62 611.175H4851.61L4853.3 616.605L4855.06 610.83H4856.23L4853.89 618H4852.73L4851.08 612.975L4849.46 618H4848.32L4845.94 610.83H4847.17ZM4858.12 610.815H4859.31V618H4858.12V610.815ZM4858.71 609.135C4858.47 609.135 4858.28 609.07 4858.14 608.94C4858.01 608.8 4857.94 608.62 4857.94 608.4C4857.94 608.17 4858.01 607.99 4858.14 607.86C4858.28 607.72 4858.47 607.65 4858.71 607.65C4858.95 607.65 4859.14 607.72 4859.28 607.86C4859.43 607.99 4859.5 608.17 4859.5 608.4C4859.5 608.62 4859.43 608.8 4859.28 608.94C4859.14 609.07 4858.95 609.135 4858.71 609.135ZM4866.28 617.79C4865.42 618.19 4864.64 618.275 4863.93 618.045C4863.42 617.885 4863.06 617.55 4862.85 617.04C4862.74 616.79 4862.68 616.49 4862.68 616.14V611.73H4861.53V610.83H4862.68V608.835H4863.85V610.83H4866.1V611.73H4863.85V616.125C4863.85 616.855 4864.19 617.22 4864.87 617.22C4865.24 617.22 4865.66 617.13 4866.12 616.95L4866.28 617.79ZM4869.36 612.15C4869.84 611.15 4870.63 610.65 4871.74 610.65C4872.59 610.65 4873.25 610.93 4873.72 611.49C4874.2 612.05 4874.44 612.815 4874.44 613.785V618H4873.27V613.785C4873.27 613.095 4873.11 612.575 4872.78 612.225C4872.46 611.875 4871.99 611.7 4871.38 611.7C4870.77 611.7 4870.28 611.96 4869.91 612.48C4869.54 612.99 4869.36 613.7 4869.36 614.61V618H4868.17V607.785H4869.36V612.15ZM4879.8 610.65C4880.8 610.65 4881.61 610.975 4882.22 611.625C4882.84 612.275 4883.15 613.205 4883.15 614.415C4883.15 615.615 4882.84 616.54 4882.22 617.19C4881.61 617.84 4880.8 618.165 4879.8 618.165C4878.8 618.165 4877.99 617.84 4877.37 617.19C4876.76 616.54 4876.46 615.615 4876.46 614.415C4876.46 613.205 4876.76 612.275 4877.37 611.625C4877.99 610.975 4878.8 610.65 4879.8 610.65ZM4881.95 614.415C4881.95 613.555 4881.77 612.885 4881.41 612.405C4881.05 611.915 4880.52 611.67 4879.82 611.67C4879.13 611.67 4878.6 611.915 4878.23 612.405C4877.86 612.885 4877.67 613.555 4877.67 614.415C4877.67 615.265 4877.85 615.935 4878.2 616.425C4878.55 616.905 4879.07 617.145 4879.76 617.145C4880.46 617.145 4881 616.905 4881.38 616.425C4881.76 615.935 4881.95 615.265 4881.95 614.415ZM4890.29 616.575C4889.8 617.615 4889 618.135 4887.9 618.135C4887.09 618.135 4886.44 617.91 4885.94 617.46C4885.45 617.01 4885.2 616.315 4885.2 615.375V610.815H4886.39V615.285C4886.39 616.495 4886.95 617.1 4888.07 617.1C4888.72 617.1 4889.24 616.85 4889.64 616.35C4890.05 615.85 4890.27 615.21 4890.29 614.43V610.815H4891.47V618H4890.29V616.575ZM4898.26 617.79C4897.4 618.19 4896.61 618.275 4895.9 618.045C4895.39 617.885 4895.03 617.55 4894.82 617.04C4894.71 616.79 4894.66 616.49 4894.66 616.14V611.73H4893.5V610.83H4894.66V608.835H4895.83V610.83H4898.08V611.73H4895.83V616.125C4895.83 616.855 4896.17 617.22 4896.85 617.22C4897.22 617.22 4897.63 617.13 4898.09 616.95L4898.26 617.79ZM4908.16 613.35C4908.16 612.7 4908.03 612.235 4907.76 611.955C4907.49 611.675 4907.09 611.535 4906.57 611.535C4906.06 611.535 4905.65 611.64 4905.33 611.85C4905.02 612.05 4904.86 612.37 4904.86 612.81H4903.56C4903.56 611.71 4904.15 611.03 4905.33 610.77C4905.69 610.69 4906.08 610.65 4906.5 610.65C4907.39 610.65 4908.08 610.875 4908.58 611.325C4909.08 611.775 4909.33 612.46 4909.33 613.38V618H4908.31L4908.19 616.8C4907.75 617.71 4906.96 618.165 4905.81 618.165C4905.04 618.165 4904.42 617.95 4903.95 617.52C4903.49 617.09 4903.26 616.555 4903.26 615.915C4903.26 615.275 4903.51 614.775 4904.02 614.415C4904.54 614.055 4905.19 613.875 4905.96 613.875C4906.73 613.875 4907.46 614.005 4908.16 614.265V613.35ZM4908.16 615.015C4907.45 614.815 4906.83 614.715 4906.3 614.715C4905.77 614.715 4905.34 614.81 4905.01 615C4904.68 615.19 4904.52 615.49 4904.52 615.9C4904.52 616.8 4905.03 617.25 4906.05 617.25C4906.63 617.25 4907.12 617.045 4907.53 616.635C4907.95 616.215 4908.16 615.675 4908.16 615.015ZM4913.26 612.21C4913.73 611.17 4914.53 610.65 4915.67 610.65C4916.52 610.65 4917.18 610.93 4917.65 611.49C4918.13 612.05 4918.37 612.815 4918.37 613.785V618H4917.2V613.785C4917.2 613.095 4917.04 612.575 4916.71 612.225C4916.39 611.875 4915.93 611.7 4915.33 611.7C4914.73 611.7 4914.24 611.945 4913.87 612.435C4913.5 612.925 4913.31 613.605 4913.29 614.475V618H4912.1V610.83H4913.12L4913.26 612.21ZM4919.71 620.085C4920.2 620.465 4920.72 620.655 4921.26 620.655C4921.66 620.655 4922 620.455 4922.29 620.055C4922.5 619.765 4922.69 619.325 4922.86 618.735L4923.07 618L4920.13 610.83H4921.45L4923.63 616.545L4925.32 610.83H4926.52L4923.84 619.425C4923.61 620.155 4923.3 620.715 4922.92 621.105C4922.55 621.495 4922.08 621.69 4921.5 621.69C4920.93 621.69 4920.33 621.515 4919.71 621.165V620.085ZM4936.43 613.35C4936.43 612.7 4936.3 612.235 4936.03 611.955C4935.76 611.675 4935.36 611.535 4934.84 611.535C4934.33 611.535 4933.92 611.64 4933.6 611.85C4933.29 612.05 4933.13 612.37 4933.13 612.81H4931.83C4931.83 611.71 4932.42 611.03 4933.6 610.77C4933.96 610.69 4934.35 610.65 4934.77 610.65C4935.66 610.65 4936.35 610.875 4936.85 611.325C4937.35 611.775 4937.6 612.46 4937.6 613.38V618H4936.58L4936.46 616.8C4936.02 617.71 4935.23 618.165 4934.08 618.165C4933.31 618.165 4932.69 617.95 4932.22 617.52C4931.76 617.09 4931.53 616.555 4931.53 615.915C4931.53 615.275 4931.78 614.775 4932.29 614.415C4932.81 614.055 4933.46 613.875 4934.23 613.875C4935 613.875 4935.73 614.005 4936.43 614.265V613.35ZM4936.43 615.015C4935.72 614.815 4935.1 614.715 4934.57 614.715C4934.04 614.715 4933.61 614.81 4933.28 615C4932.95 615.19 4932.79 615.49 4932.79 615.9C4932.79 616.8 4933.3 617.25 4934.32 617.25C4934.9 617.25 4935.39 617.045 4935.8 616.635C4936.22 616.215 4936.43 615.675 4936.43 615.015ZM4945.08 611.895V607.785H4946.25V618H4945.29L4945.14 616.8C4944.91 617.25 4944.61 617.59 4944.23 617.82C4943.85 618.05 4943.43 618.165 4942.98 618.165C4942.07 618.165 4941.31 617.815 4940.69 617.115C4940.08 616.415 4939.77 615.505 4939.77 614.385C4939.77 613.255 4940.07 612.35 4940.67 611.67C4941.28 610.99 4942.05 610.65 4942.97 610.65C4943.9 610.65 4944.6 611.065 4945.08 611.895ZM4943.04 611.7C4942.46 611.7 4941.97 611.945 4941.57 612.435C4941.18 612.925 4940.99 613.58 4940.99 614.4C4940.99 615.22 4941.19 615.88 4941.59 616.38C4941.99 616.87 4942.47 617.115 4943.03 617.115C4943.59 617.115 4944.06 616.93 4944.45 616.56C4944.85 616.18 4945.06 615.675 4945.08 615.045V613.875C4945.08 613.205 4944.89 612.675 4944.5 612.285C4944.11 611.895 4943.62 611.7 4943.04 611.7ZM4948.92 612.585C4948.92 611.995 4949.17 611.525 4949.67 611.175C4950.18 610.825 4950.86 610.65 4951.72 610.65C4952.58 610.65 4953.25 610.83 4953.73 611.19C4954.22 611.55 4954.48 612.005 4954.5 612.555H4953.34C4953.25 611.905 4952.7 611.58 4951.69 611.58C4951.2 611.58 4950.82 611.69 4950.55 611.91C4950.29 612.13 4950.16 612.37 4950.16 612.63C4950.16 612.88 4950.26 613.095 4950.46 613.275C4950.66 613.445 4950.98 613.595 4951.42 613.725L4952.86 614.205C4953.47 614.395 4953.94 614.64 4954.26 614.94C4954.59 615.23 4954.75 615.635 4954.75 616.155C4954.75 616.665 4954.49 617.13 4953.96 617.55C4953.43 617.96 4952.69 618.165 4951.74 618.165C4950.79 618.165 4950.05 617.955 4949.52 617.535C4948.99 617.105 4948.71 616.555 4948.68 615.885H4949.82C4949.84 616.335 4950.02 616.675 4950.36 616.905C4950.71 617.125 4951.14 617.235 4951.66 617.235C4952.18 617.235 4952.61 617.125 4952.95 616.905C4953.29 616.685 4953.46 616.425 4953.46 616.125C4953.46 615.815 4953.36 615.58 4953.16 615.42C4952.96 615.26 4952.64 615.12 4952.19 615L4950.79 614.535C4949.54 614.165 4948.92 613.515 4948.92 612.585ZM4964.24 608.79C4963.91 608.66 4963.65 608.595 4963.46 608.595C4963.11 608.595 4962.84 608.68 4962.64 608.85C4962.44 609.02 4962.34 609.32 4962.34 609.75V610.83H4963.82V611.64H4962.34V618H4961.17V611.64H4959.98V610.83H4961.17V609.735C4961.17 609.025 4961.36 608.505 4961.75 608.175C4962.14 607.835 4962.59 607.665 4963.1 607.665C4963.61 607.665 4964.06 607.73 4964.45 607.86L4964.24 608.79ZM4968.49 610.65C4969.49 610.65 4970.29 610.975 4970.9 611.625C4971.52 612.275 4971.83 613.205 4971.83 614.415C4971.83 615.615 4971.52 616.54 4970.9 617.19C4970.29 617.84 4969.49 618.165 4968.49 618.165C4967.49 618.165 4966.68 617.84 4966.06 617.19C4965.45 616.54 4965.14 615.615 4965.14 614.415C4965.14 613.205 4965.45 612.275 4966.06 611.625C4966.68 610.975 4967.49 610.65 4968.49 610.65ZM4970.63 614.415C4970.63 613.555 4970.45 612.885 4970.09 612.405C4969.73 611.915 4969.2 611.67 4968.5 611.67C4967.81 611.67 4967.28 611.915 4966.91 612.405C4966.54 612.885 4966.36 613.555 4966.36 614.415C4966.36 615.265 4966.53 615.935 4966.88 616.425C4967.23 616.905 4967.75 617.145 4968.44 617.145C4969.14 617.145 4969.68 616.905 4970.06 616.425C4970.44 615.935 4970.63 615.265 4970.63 614.415ZM4977.02 611.835C4975.89 611.835 4975.3 612.725 4975.26 614.505V618H4974.08V610.815H4975.26V612.195C4975.62 611.195 4976.26 610.695 4977.17 610.695C4977.46 610.695 4977.73 610.74 4977.99 610.83L4977.93 611.985C4977.63 611.885 4977.33 611.835 4977.02 611.835ZM4986.86 608.79C4986.53 608.66 4986.27 608.595 4986.08 608.595C4985.73 608.595 4985.46 608.68 4985.26 608.85C4985.06 609.02 4984.96 609.32 4984.96 609.75V610.83H4986.44V611.64H4984.96V618H4983.79V611.64H4982.6V610.83H4983.79V609.735C4983.79 609.025 4983.98 608.505 4984.37 608.175C4984.76 607.835 4985.21 607.665 4985.72 607.665C4986.23 607.665 4986.68 607.73 4987.07 607.86L4986.86 608.79ZM4991.45 611.835C4990.32 611.835 4989.73 612.725 4989.69 614.505V618H4988.51V610.815H4989.69V612.195C4990.05 611.195 4990.69 610.695 4991.6 610.695C4991.89 610.695 4992.16 610.74 4992.42 610.83L4992.36 611.985C4992.06 611.885 4991.76 611.835 4991.45 611.835ZM4996.71 617.205C4997.7 617.205 4998.27 616.77 4998.41 615.9H4999.62C4999.51 616.62 4999.19 617.18 4998.66 617.58C4998.14 617.97 4997.49 618.165 4996.71 618.165C4995.75 618.165 4994.97 617.825 4994.37 617.145C4993.77 616.455 4993.47 615.54 4993.47 614.4C4993.47 613.26 4993.77 612.35 4994.37 611.67C4994.98 610.99 4995.79 610.65 4996.79 610.65C4997.8 610.65 4998.55 611.04 4999.04 611.82C4999.54 612.6 4999.71 613.55 4999.56 614.67H4994.66C4994.66 615.41 4994.84 616.02 4995.2 616.5C4995.56 616.97 4996.06 617.205 4996.71 617.205ZM4997.58 611.775C4997.35 611.655 4997.07 611.595 4996.74 611.595C4996.13 611.595 4995.65 611.805 4995.29 612.225C4994.94 612.635 4994.73 613.15 4994.67 613.77H4998.5C4998.5 612.77 4998.19 612.105 4997.58 611.775ZM5004.43 617.205C5005.42 617.205 5005.99 616.77 5006.13 615.9H5007.34C5007.23 616.62 5006.91 617.18 5006.38 617.58C5005.86 617.97 5005.21 618.165 5004.43 618.165C5003.47 618.165 5002.69 617.825 5002.09 617.145C5001.49 616.455 5001.19 615.54 5001.19 614.4C5001.19 613.26 5001.49 612.35 5002.09 611.67C5002.7 610.99 5003.51 610.65 5004.51 610.65C5005.52 610.65 5006.27 611.04 5006.76 611.82C5007.26 612.6 5007.43 613.55 5007.28 614.67H5002.38C5002.38 615.41 5002.56 616.02 5002.92 616.5C5003.28 616.97 5003.78 617.205 5004.43 617.205ZM5005.3 611.775C5005.07 611.655 5004.79 611.595 5004.46 611.595C5003.85 611.595 5003.37 611.805 5003.01 612.225C5002.66 612.635 5002.45 613.15 5002.39 613.77H5006.22C5006.22 612.77 5005.91 612.105 5005.3 611.775ZM5009.65 608.595H5010.89L5010.76 615.36H5009.8L5009.65 608.595ZM5010.26 618.135C5010.01 618.135 5009.8 618.055 5009.63 617.895C5009.47 617.725 5009.39 617.525 5009.39 617.295C5009.39 617.055 5009.47 616.855 5009.63 616.695C5009.8 616.525 5010.01 616.44 5010.26 616.44C5010.52 616.44 5010.74 616.525 5010.91 616.695C5011.09 616.855 5011.18 617.055 5011.18 617.295C5011.18 617.525 5011.09 617.725 5010.91 617.895C5010.74 618.055 5010.52 618.135 5010.26 618.135Z" fill="#32403B"/>
<rect x="4741" y="655" width="375" height="55" rx="10" fill="white"/>
<rect x="4741.5" y="655.5" width="374" height="54" rx="9.5" stroke="black" stroke-opacity="0.1"/>
<rect x="4741" y="725" width="375" height="55" rx="10" fill="white"/>
<rect x="4741.5" y="725.5" width="374" height="54" rx="9.5" stroke="black" stroke-opacity="0.1"/>
<rect x="4802" y="801" width="255" height="59" rx="15" fill="#84C7AE"/>
<path d="M4856.54 823.436C4857.42 823.436 4858.18 823.546 4858.83 823.766C4859.47 823.971 4860.03 824.265 4860.5 824.646C4861.42 825.394 4862.03 826.443 4862.3 827.792L4859.53 828.298C4859.3 827.55 4858.93 826.949 4858.43 826.494C4857.95 826.025 4857.34 825.79 4856.61 825.79C4855.61 825.79 4854.8 826.208 4854.19 827.044C4853.53 827.953 4853.2 829.215 4853.2 830.828C4853.2 832.427 4853.49 833.681 4854.08 834.59C4854.66 835.485 4855.46 835.932 4856.47 835.932C4857.49 835.932 4858.25 835.69 4858.76 835.206C4859.28 834.707 4859.53 834.069 4859.53 833.292H4862.33C4862.33 834.891 4861.81 836.13 4860.79 837.01C4859.77 837.875 4858.38 838.308 4856.61 838.308C4854.71 838.308 4853.21 837.648 4852.1 836.328C4850.97 834.979 4850.4 833.145 4850.4 830.828C4850.4 828.481 4850.98 826.648 4852.14 825.328C4853.25 824.067 4854.72 823.436 4856.54 823.436ZM4867.95 829.42C4868.6 827.88 4869.57 827.11 4870.86 827.11C4871.11 827.11 4871.42 827.161 4871.8 827.264L4871.76 829.86C4871.35 829.772 4870.95 829.728 4870.55 829.728C4868.82 829.728 4867.95 830.923 4867.95 833.314V838H4865.36V827.286H4867.95V829.42ZM4881.97 828.584C4882.33 829.053 4882.61 829.596 4882.78 830.212C4882.97 830.828 4883.07 831.393 4883.07 831.906C4883.07 832.419 4883.04 832.881 4882.98 833.292H4876.07C4876.1 834.157 4876.31 834.861 4876.71 835.404C4877.11 835.947 4877.71 836.218 4878.51 836.218C4879.58 836.218 4880.22 835.749 4880.43 834.81H4883.05C4882.87 835.881 4882.38 836.724 4881.57 837.34C4880.74 837.985 4879.72 838.308 4878.51 838.308C4877.11 838.308 4875.93 837.795 4874.97 836.768C4873.99 835.697 4873.5 834.326 4873.5 832.654C4873.5 830.938 4873.99 829.559 4874.97 828.518C4875.91 827.521 4877.09 827.022 4878.51 827.022C4880 827.022 4881.15 827.543 4881.97 828.584ZM4878.54 829.09C4877.8 829.09 4877.23 829.332 4876.82 829.816C4876.41 830.285 4876.17 830.894 4876.09 831.642H4880.65C4880.65 830.483 4880.28 829.706 4879.55 829.31C4879.27 829.163 4878.93 829.09 4878.54 829.09ZM4889.7 831.752C4890.55 831.752 4891.53 831.891 4892.64 832.17V831.114C4892.64 830.366 4892.49 829.816 4892.18 829.464C4891.89 829.097 4891.4 828.914 4890.71 828.914C4890.03 828.914 4889.51 829.053 4889.15 829.332C4888.78 829.596 4888.6 829.977 4888.6 830.476H4885.76C4885.76 829.259 4886.18 828.379 4887.03 827.836C4887.9 827.293 4889.1 827.022 4890.64 827.022C4892.84 827.022 4894.26 827.792 4894.91 829.332C4895.13 829.86 4895.24 830.483 4895.24 831.202V838H4892.97L4892.78 836.57C4892.09 837.729 4891.03 838.308 4889.61 838.308C4888.23 838.308 4887.16 837.971 4886.4 837.296C4885.69 836.651 4885.34 835.837 4885.34 834.854C4885.34 833.857 4885.73 833.094 4886.51 832.566C4887.28 832.023 4888.35 831.752 4889.7 831.752ZM4892.64 833.82C4891.78 833.585 4890.97 833.468 4890.22 833.468C4888.82 833.468 4888.11 833.937 4888.11 834.876C4888.11 835.272 4888.27 835.617 4888.6 835.91C4888.92 836.189 4889.43 836.328 4890.14 836.328C4890.85 836.328 4891.44 836.093 4891.9 835.624C4892.37 835.14 4892.61 834.539 4892.64 833.82ZM4905.05 837.736C4904.08 838.117 4903.32 838.308 4902.76 838.308C4902.21 838.308 4901.71 838.242 4901.29 838.11C4900.88 837.978 4900.51 837.78 4900.19 837.516C4899.51 836.915 4899.18 836.086 4899.18 835.03V829.046H4897.68V827.308H4899.18V824.492H4901.77V827.308H4904.68V829.046H4901.77V834.942C4901.77 835.822 4902.19 836.262 4903.03 836.262C4903.45 836.262 4904 836.145 4904.68 835.91L4905.05 837.736ZM4915.16 828.584C4915.53 829.053 4915.8 829.596 4915.98 830.212C4916.17 830.828 4916.26 831.393 4916.26 831.906C4916.26 832.419 4916.23 832.881 4916.17 833.292H4909.27C4909.29 834.157 4909.51 834.861 4909.9 835.404C4910.3 835.947 4910.9 836.218 4911.71 836.218C4912.78 836.218 4913.42 835.749 4913.62 834.81H4916.24C4916.06 835.881 4915.57 836.724 4914.77 837.34C4913.93 837.985 4912.91 838.308 4911.71 838.308C4910.3 838.308 4909.12 837.795 4908.17 836.768C4907.18 835.697 4906.69 834.326 4906.69 832.654C4906.69 830.938 4907.18 829.559 4908.17 828.518C4909.1 827.521 4910.28 827.022 4911.71 827.022C4913.19 827.022 4914.34 827.543 4915.16 828.584ZM4911.73 829.09C4911 829.09 4910.42 829.332 4910.01 829.816C4909.6 830.285 4909.36 830.894 4909.29 831.642H4913.84C4913.84 830.483 4913.47 829.706 4912.74 829.31C4912.46 829.163 4912.13 829.09 4911.73 829.09ZM4928.23 823.722H4931.49L4936.18 838H4933.43L4932.44 834.92H4927.13L4926.12 838H4923.37L4928.23 823.722ZM4927.79 832.962H4931.8L4929.82 826.824L4927.79 832.962ZM4942.78 827.022C4943.45 827.022 4944.05 827.139 4944.58 827.374C4945.12 827.594 4945.58 827.887 4945.94 828.254C4946.68 828.958 4947.11 829.845 4947.24 830.916L4944.62 830.982C4944.51 830.513 4944.29 830.124 4943.96 829.816C4943.66 829.508 4943.3 829.354 4942.89 829.354C4942.47 829.354 4942.12 829.42 4941.83 829.552C4941.54 829.669 4941.28 829.86 4941.06 830.124C4940.56 830.74 4940.31 831.591 4940.31 832.676C4940.31 833.761 4940.55 834.583 4941.02 835.14C4941.48 835.683 4942.05 835.954 4942.71 835.954C4943.38 835.954 4943.87 835.8 4944.16 835.492C4944.47 835.169 4944.62 834.737 4944.62 834.194H4947.24C4947.24 835.367 4946.85 836.343 4946.08 837.12C4945.28 837.912 4944.18 838.308 4942.75 838.308C4941.35 838.308 4940.16 837.795 4939.21 836.768C4938.2 835.668 4937.69 834.297 4937.69 832.654C4937.69 830.923 4938.2 829.537 4939.21 828.496C4940.16 827.513 4941.35 827.022 4942.78 827.022ZM4954.44 827.022C4955.12 827.022 4955.72 827.139 4956.25 827.374C4956.79 827.594 4957.24 827.887 4957.61 828.254C4958.34 828.958 4958.78 829.845 4958.91 830.916L4956.29 830.982C4956.17 830.513 4955.95 830.124 4955.63 829.816C4955.32 829.508 4954.96 829.354 4954.55 829.354C4954.14 829.354 4953.79 829.42 4953.5 829.552C4953.2 829.669 4952.95 829.86 4952.73 830.124C4952.23 830.74 4951.98 831.591 4951.98 832.676C4951.98 833.761 4952.21 834.583 4952.68 835.14C4953.15 835.683 4953.72 835.954 4954.38 835.954C4955.05 835.954 4955.53 835.8 4955.83 835.492C4956.14 835.169 4956.29 834.737 4956.29 834.194H4958.91C4958.91 835.367 4958.52 836.343 4957.74 837.12C4956.95 837.912 4955.84 838.308 4954.42 838.308C4953.01 838.308 4951.83 837.795 4950.88 836.768C4949.87 835.668 4949.36 834.297 4949.36 832.654C4949.36 830.923 4949.87 829.537 4950.88 828.496C4951.83 827.513 4953.02 827.022 4954.44 827.022ZM4966.24 827.022C4966.96 827.022 4967.63 827.139 4968.26 827.374C4968.89 827.594 4969.44 827.939 4969.89 828.408C4970.9 829.435 4971.41 830.857 4971.41 832.676C4971.41 834.465 4970.9 835.873 4969.89 836.9C4968.98 837.839 4967.76 838.308 4966.24 838.308C4964.71 838.308 4963.48 837.839 4962.54 836.9C4961.53 835.888 4961.03 834.48 4961.03 832.676C4961.03 830.843 4961.53 829.42 4962.54 828.408C4963.47 827.484 4964.7 827.022 4966.24 827.022ZM4968.81 832.654C4968.81 831.525 4968.59 830.681 4968.15 830.124C4967.71 829.552 4967.1 829.266 4966.31 829.266C4965.53 829.266 4964.89 829.552 4964.39 830.124C4963.89 830.681 4963.64 831.525 4963.64 832.654C4963.64 833.783 4963.86 834.634 4964.3 835.206C4964.76 835.763 4965.37 836.042 4966.15 836.042C4966.93 836.042 4967.57 835.763 4968.07 835.206C4968.56 834.634 4968.81 833.783 4968.81 832.654ZM4981.6 836.064C4980.93 837.487 4979.84 838.198 4978.35 838.198C4976.46 838.198 4975.21 837.457 4974.61 835.976C4974.39 835.463 4974.28 834.839 4974.28 834.106V827.286H4976.87V833.842C4976.87 834.546 4977.04 835.074 4977.38 835.426C4977.72 835.763 4978.13 835.932 4978.61 835.932C4979.11 835.932 4979.53 835.866 4979.87 835.734C4980.2 835.587 4980.5 835.375 4980.75 835.096C4981.29 834.465 4981.57 833.622 4981.6 832.566V827.286H4984.2V838H4981.6V836.064ZM4990.84 829.156C4991.55 827.733 4992.68 827.022 4994.23 827.022C4995.55 827.022 4996.54 827.455 4997.2 828.32C4997.88 829.185 4998.21 830.329 4998.21 831.752V838H4995.62V831.752C4995.62 830.96 4995.43 830.366 4995.05 829.97C4994.66 829.559 4994.13 829.354 4993.44 829.354C4992.75 829.354 4992.16 829.662 4991.66 830.278C4991.17 830.894 4990.92 831.818 4990.89 833.05V838H4988.29V827.308H4990.56L4990.84 829.156ZM5008.03 837.736C5007.06 838.117 5006.3 838.308 5005.74 838.308C5005.18 838.308 5004.69 838.242 5004.26 838.11C5003.85 837.978 5003.49 837.78 5003.16 837.516C5002.49 836.915 5002.15 836.086 5002.15 835.03V829.046H5000.66V827.308H5002.15V824.492H5004.75V827.308H5007.65V829.046H5004.75V834.942C5004.75 835.822 5005.17 836.262 5006 836.262C5006.43 836.262 5006.98 836.145 5007.65 835.91L5008.03 837.736Z" fill="white"/>
<path d="M4826.53 876.194H4827.88L4830.83 885H4829.68L4828.93 882.76H4825.43L4824.67 885H4823.51L4826.53 876.194ZM4825.72 881.892H4828.65L4827.19 877.552L4825.72 881.892ZM4832.61 875.466H4833.72V885H4832.61V875.466ZM4839.27 879.246C4838.21 879.246 4837.67 880.077 4837.63 881.738V885H4836.52V878.294H4837.63V879.582C4837.97 878.649 4838.56 878.182 4839.41 878.182C4839.68 878.182 4839.93 878.224 4840.18 878.308L4840.12 879.386C4839.84 879.293 4839.56 879.246 4839.27 879.246ZM4844.18 884.258C4845.1 884.258 4845.63 883.852 4845.76 883.04H4846.9C4846.79 883.712 4846.49 884.235 4846 884.608C4845.51 884.972 4844.91 885.154 4844.18 885.154C4843.28 885.154 4842.56 884.837 4842 884.202C4841.44 883.558 4841.16 882.704 4841.16 881.64C4841.16 880.576 4841.44 879.727 4842 879.092C4842.56 878.457 4843.32 878.14 4844.25 878.14C4845.19 878.14 4845.89 878.504 4846.35 879.232C4846.82 879.96 4846.98 880.847 4846.84 881.892H4842.26C4842.26 882.583 4842.43 883.152 4842.77 883.6C4843.1 884.039 4843.57 884.258 4844.18 884.258ZM4844.99 879.19C4844.78 879.078 4844.52 879.022 4844.21 879.022C4843.64 879.022 4843.19 879.218 4842.85 879.61C4842.52 879.993 4842.33 880.473 4842.28 881.052H4845.85C4845.85 880.119 4845.56 879.498 4844.99 879.19ZM4853.22 880.66C4853.22 880.053 4853.09 879.619 4852.84 879.358C4852.59 879.097 4852.22 878.966 4851.73 878.966C4851.26 878.966 4850.87 879.064 4850.57 879.26C4850.28 879.447 4850.14 879.745 4850.14 880.156H4848.92C4848.92 879.129 4849.47 878.495 4850.57 878.252C4850.91 878.177 4851.27 878.14 4851.66 878.14C4852.49 878.14 4853.14 878.35 4853.61 878.77C4854.08 879.19 4854.31 879.829 4854.31 880.688V885H4853.36L4853.25 883.88C4852.84 884.729 4852.09 885.154 4851.02 885.154C4850.3 885.154 4849.72 884.953 4849.28 884.552C4848.85 884.151 4848.64 883.651 4848.64 883.054C4848.64 882.457 4848.88 881.99 4849.35 881.654C4849.84 881.318 4850.44 881.15 4851.16 881.15C4851.88 881.15 4852.56 881.271 4853.22 881.514V880.66ZM4853.22 882.214C4852.56 882.027 4851.98 881.934 4851.48 881.934C4850.99 881.934 4850.59 882.023 4850.28 882.2C4849.97 882.377 4849.82 882.657 4849.82 883.04C4849.82 883.88 4850.29 884.3 4851.24 884.3C4851.79 884.3 4852.25 884.109 4852.63 883.726C4853.02 883.334 4853.22 882.83 4853.22 882.214ZM4861.29 879.302V875.466H4862.38V885H4861.49L4861.35 883.88C4861.13 884.3 4860.85 884.617 4860.49 884.832C4860.14 885.047 4859.75 885.154 4859.33 885.154C4858.48 885.154 4857.77 884.827 4857.19 884.174C4856.62 883.521 4856.33 882.671 4856.33 881.626C4856.33 880.571 4856.61 879.727 4857.17 879.092C4857.74 878.457 4858.46 878.14 4859.32 878.14C4860.18 878.14 4860.84 878.527 4861.29 879.302ZM4859.39 879.12C4858.84 879.12 4858.39 879.349 4858.01 879.806C4857.65 880.263 4857.47 880.875 4857.47 881.64C4857.47 882.405 4857.65 883.021 4858.03 883.488C4858.4 883.945 4858.85 884.174 4859.37 884.174C4859.89 884.174 4860.34 884.001 4860.7 883.656C4861.08 883.301 4861.27 882.83 4861.29 882.242V881.15C4861.29 880.525 4861.11 880.03 4860.74 879.666C4860.38 879.302 4859.93 879.12 4859.39 879.12ZM4863.88 886.946C4864.33 887.301 4864.81 887.478 4865.32 887.478C4865.69 887.478 4866.01 887.291 4866.28 886.918C4866.48 886.647 4866.66 886.237 4866.82 885.686L4867.01 885L4864.27 878.308H4865.5L4867.53 883.642L4869.11 878.308H4870.23L4867.73 886.33C4867.51 887.011 4867.23 887.534 4866.87 887.898C4866.53 888.262 4866.08 888.444 4865.54 888.444C4865.01 888.444 4864.46 888.281 4863.88 887.954V886.946ZM4876.44 876.194V880.072H4880.77V876.194H4881.88V885H4880.77V881.024H4876.44V885H4875.34V876.194H4876.44ZM4888.85 880.66C4888.85 880.053 4888.72 879.619 4888.47 879.358C4888.22 879.097 4887.85 878.966 4887.36 878.966C4886.89 878.966 4886.5 879.064 4886.2 879.26C4885.91 879.447 4885.77 879.745 4885.77 880.156H4884.55C4884.55 879.129 4885.1 878.495 4886.2 878.252C4886.54 878.177 4886.9 878.14 4887.29 878.14C4888.12 878.14 4888.77 878.35 4889.24 878.77C4889.71 879.19 4889.94 879.829 4889.94 880.688V885H4888.99L4888.88 883.88C4888.46 884.729 4887.72 885.154 4886.65 885.154C4885.93 885.154 4885.35 884.953 4884.91 884.552C4884.48 884.151 4884.27 883.651 4884.27 883.054C4884.27 882.457 4884.51 881.99 4884.98 881.654C4885.47 881.318 4886.07 881.15 4886.79 881.15C4887.51 881.15 4888.19 881.271 4888.85 881.514V880.66ZM4888.85 882.214C4888.18 882.027 4887.61 881.934 4887.11 881.934C4886.62 881.934 4886.22 882.023 4885.91 882.2C4885.6 882.377 4885.45 882.657 4885.45 883.04C4885.45 883.88 4885.92 884.3 4886.87 884.3C4887.41 884.3 4887.88 884.109 4888.26 883.726C4888.65 883.334 4888.85 882.83 4888.85 882.214ZM4892.62 878.308L4894.64 883.838L4896.67 878.308H4897.91L4895.25 885H4894.04L4891.38 878.308H4892.62ZM4901.89 884.258C4902.81 884.258 4903.34 883.852 4903.47 883.04H4904.6C4904.5 883.712 4904.2 884.235 4903.71 884.608C4903.22 884.972 4902.62 885.154 4901.89 885.154C4900.99 885.154 4900.26 884.837 4899.7 884.202C4899.14 883.558 4898.86 882.704 4898.86 881.64C4898.86 880.576 4899.14 879.727 4899.7 879.092C4900.27 878.457 4901.02 878.14 4901.96 878.14C4902.9 878.14 4903.6 878.504 4904.06 879.232C4904.52 879.96 4904.69 880.847 4904.55 881.892H4899.97C4899.97 882.583 4900.14 883.152 4900.47 883.6C4900.81 884.039 4901.28 884.258 4901.89 884.258ZM4902.7 879.19C4902.49 879.078 4902.22 879.022 4901.92 879.022C4901.35 879.022 4900.89 879.218 4900.56 879.61C4900.23 879.993 4900.04 880.473 4899.98 881.052H4903.55C4903.55 880.119 4903.27 879.498 4902.7 879.19ZM4912.09 876.194H4913.44L4916.39 885H4915.24L4914.49 882.76H4910.99L4910.23 885H4909.07L4912.09 876.194ZM4911.28 881.892H4914.21L4912.75 877.552L4911.28 881.892ZM4919.24 879.596C4919.67 878.625 4920.43 878.14 4921.49 878.14C4922.28 878.14 4922.9 878.401 4923.34 878.924C4923.79 879.447 4924.01 880.161 4924.01 881.066V885H4922.92V881.066C4922.92 880.422 4922.76 879.937 4922.46 879.61C4922.16 879.283 4921.73 879.12 4921.17 879.12C4920.61 879.12 4920.16 879.349 4919.81 879.806C4919.46 880.263 4919.28 880.898 4919.26 881.71V885H4918.16V878.308H4919.11L4919.24 879.596ZM4931.92 876.194H4933.26L4936.22 885H4935.07L4934.31 882.76H4930.81L4930.06 885H4928.89L4931.92 876.194ZM4931.11 881.892H4934.03L4932.58 877.552L4931.11 881.892ZM4940.22 878.14C4941.02 878.14 4941.65 878.345 4942.11 878.756C4942.58 879.157 4942.88 879.661 4943.02 880.268L4941.9 880.366C4941.78 879.974 4941.58 879.671 4941.31 879.456C4941.04 879.232 4940.74 879.12 4940.42 879.12C4939.82 879.12 4939.34 879.344 4938.96 879.792C4938.6 880.24 4938.42 880.851 4938.42 881.626C4938.42 882.391 4938.59 883.007 4938.95 883.474C4939.31 883.941 4939.76 884.174 4940.29 884.174C4940.83 884.174 4941.23 884.053 4941.5 883.81C4941.77 883.558 4941.9 883.203 4941.9 882.746H4943.04C4943.04 883.465 4942.78 884.048 4942.28 884.496C4941.79 884.935 4941.14 885.154 4940.33 885.154C4939.48 885.154 4938.76 884.832 4938.16 884.188C4937.58 883.544 4937.28 882.69 4937.28 881.626C4937.28 880.553 4937.58 879.703 4938.16 879.078C4938.75 878.453 4939.44 878.14 4940.22 878.14ZM4947.43 878.14C4948.22 878.14 4948.85 878.345 4949.32 878.756C4949.78 879.157 4950.09 879.661 4950.23 880.268L4949.11 880.366C4948.99 879.974 4948.79 879.671 4948.52 879.456C4948.25 879.232 4947.95 879.12 4947.62 879.12C4947.03 879.12 4946.54 879.344 4946.17 879.792C4945.8 880.24 4945.62 880.851 4945.62 881.626C4945.62 882.391 4945.8 883.007 4946.15 883.474C4946.52 883.941 4946.97 884.174 4947.5 884.174C4948.04 884.174 4948.44 884.053 4948.7 883.81C4948.97 883.558 4949.11 883.203 4949.11 882.746H4950.24C4950.24 883.465 4949.99 884.048 4949.49 884.496C4948.99 884.935 4948.34 885.154 4947.54 885.154C4946.69 885.154 4945.97 884.832 4945.37 884.188C4944.78 883.544 4944.49 882.69 4944.49 881.626C4944.49 880.553 4944.78 879.703 4945.37 879.078C4945.96 878.453 4946.64 878.14 4947.43 878.14ZM4954.81 878.14C4955.75 878.14 4956.5 878.443 4957.07 879.05C4957.65 879.657 4957.94 880.525 4957.94 881.654C4957.94 882.774 4957.65 883.637 4957.07 884.244C4956.5 884.851 4955.75 885.154 4954.81 885.154C4953.88 885.154 4953.12 884.851 4952.55 884.244C4951.98 883.637 4951.69 882.774 4951.69 881.654C4951.69 880.525 4951.98 879.657 4952.55 879.05C4953.12 878.443 4953.88 878.14 4954.81 878.14ZM4956.82 881.654C4956.82 880.851 4956.65 880.226 4956.31 879.778C4955.98 879.321 4955.48 879.092 4954.83 879.092C4954.18 879.092 4953.69 879.321 4953.34 879.778C4953 880.226 4952.83 880.851 4952.83 881.654C4952.83 882.447 4952.99 883.073 4953.32 883.53C4953.64 883.978 4954.13 884.202 4954.77 884.202C4955.43 884.202 4955.93 883.978 4956.28 883.53C4956.64 883.073 4956.82 882.447 4956.82 881.654ZM4964.6 883.67C4964.14 884.641 4963.4 885.126 4962.37 885.126C4961.62 885.126 4961.01 884.916 4960.54 884.496C4960.08 884.076 4959.85 883.427 4959.85 882.55V878.294H4960.96V882.466C4960.96 883.595 4961.48 884.16 4962.53 884.16C4963.13 884.16 4963.62 883.927 4964 883.46C4964.38 882.993 4964.58 882.396 4964.6 881.668V878.294H4965.7V885H4964.6V883.67ZM4969.6 879.596C4970.04 878.625 4970.79 878.14 4971.86 878.14C4972.65 878.14 4973.27 878.401 4973.71 878.924C4974.15 879.447 4974.38 880.161 4974.38 881.066V885H4973.29V881.066C4973.29 880.422 4973.13 879.937 4972.82 879.61C4972.52 879.283 4972.1 879.12 4971.54 879.12C4970.98 879.12 4970.52 879.349 4970.18 879.806C4969.83 880.263 4969.65 880.898 4969.63 881.71V885H4968.53V878.308H4969.48L4969.6 879.596ZM4980.47 884.804C4979.67 885.177 4978.94 885.257 4978.28 885.042C4977.8 884.893 4977.46 884.58 4977.27 884.104C4977.17 883.871 4977.11 883.591 4977.11 883.264V879.148H4976.04V878.308H4977.11V876.446H4978.21V878.308H4980.31V879.148H4978.21V883.25C4978.21 883.931 4978.52 884.272 4979.16 884.272C4979.5 884.272 4979.89 884.188 4980.32 884.02L4980.47 884.804ZM4984.3 877.048C4983.2 877.048 4982.58 877.477 4982.42 878.336H4981.24C4981.31 877.645 4981.59 877.09 4982.1 876.67C4982.6 876.25 4983.31 876.04 4984.21 876.04C4985.13 876.04 4985.85 876.264 4986.37 876.712C4986.9 877.16 4987.17 877.706 4987.17 878.35C4987.17 878.835 4987.04 879.241 4986.8 879.568C4986.56 879.885 4986.17 880.193 4985.63 880.492C4985.39 880.623 4985.2 880.739 4985.04 880.842C4984.88 880.945 4984.75 881.061 4984.66 881.192C4984.48 881.425 4984.39 881.761 4984.39 882.2V882.746H4983.3V882.116C4983.3 881.528 4983.4 881.08 4983.6 880.772C4983.79 880.455 4984.15 880.156 4984.66 879.876C4985.17 879.596 4985.52 879.353 4985.7 879.148C4985.87 878.933 4985.96 878.649 4985.96 878.294C4985.96 877.939 4985.81 877.645 4985.51 877.412C4985.22 877.169 4984.82 877.048 4984.3 877.048ZM4983.86 883.572C4984.1 883.572 4984.31 883.651 4984.46 883.81C4984.62 883.969 4984.7 884.16 4984.7 884.384C4984.7 884.599 4984.62 884.781 4984.46 884.93C4984.31 885.079 4984.1 885.154 4983.86 885.154C4983.62 885.154 4983.42 885.079 4983.27 884.93C4983.12 884.781 4983.05 884.599 4983.05 884.384C4983.05 884.16 4983.12 883.969 4983.27 883.81C4983.42 883.651 4983.62 883.572 4983.86 883.572ZM4997.25 878.336C4997.09 877.477 4996.46 877.048 4995.36 877.048C4994.77 877.048 4994.32 877.179 4994 877.44C4993.69 877.692 4993.53 878 4993.53 878.364C4993.53 878.719 4993.62 878.989 4993.82 879.176C4994.02 879.363 4994.33 879.526 4994.77 879.666L4996.61 880.296C4997.23 880.511 4997.73 880.805 4998.09 881.178C4998.46 881.551 4998.65 882.079 4998.65 882.76C4998.65 883.432 4998.36 884.001 4997.78 884.468C4997.2 884.925 4996.43 885.154 4995.46 885.154C4994.49 885.154 4993.69 884.911 4993.06 884.426C4992.45 883.931 4992.13 883.241 4992.11 882.354H4993.19C4993.19 882.933 4993.39 883.376 4993.79 883.684C4994.2 883.992 4994.73 884.146 4995.36 884.146C4996 884.146 4996.51 884.006 4996.89 883.726C4997.26 883.437 4997.45 883.101 4997.45 882.718C4997.45 882.326 4997.33 882.018 4997.1 881.794C4996.87 881.57 4996.54 881.383 4996.09 881.234L4994.53 880.66C4993.81 880.417 4993.26 880.128 4992.88 879.792C4992.51 879.456 4992.32 878.966 4992.32 878.322C4992.32 877.669 4992.58 877.127 4993.11 876.698C4993.63 876.259 4994.36 876.04 4995.3 876.04C4996.25 876.04 4996.97 876.25 4997.46 876.67C4997.96 877.081 4998.25 877.636 4998.33 878.336H4997.25ZM5001.11 878.294H5002.21V885H5001.11V878.294ZM5001.65 876.726C5001.43 876.726 5001.25 876.665 5001.12 876.544C5001 876.413 5000.94 876.245 5000.94 876.04C5000.94 875.825 5001 875.657 5001.12 875.536C5001.25 875.405 5001.43 875.34 5001.65 875.34C5001.88 875.34 5002.05 875.405 5002.19 875.536C5002.33 875.657 5002.4 875.825 5002.4 876.04C5002.4 876.245 5002.33 876.413 5002.19 876.544C5002.05 876.665 5001.88 876.726 5001.65 876.726ZM5005.5 884.79C5004.94 884.519 5004.66 884.104 5004.66 883.544C5004.66 883.255 5004.77 883.003 5004.98 882.788C5005.21 882.564 5005.48 882.415 5005.81 882.34C5005.3 881.892 5005.05 881.304 5005.05 880.576C5005.05 879.848 5005.31 879.26 5005.82 878.812C5006.35 878.364 5006.96 878.14 5007.67 878.14C5008.38 878.14 5008.98 878.308 5009.48 878.644C5009.54 878.149 5009.74 877.753 5010.06 877.454C5010.4 877.155 5010.84 877.006 5011.38 877.006L5011.28 878.098C5010.46 878.098 5010.03 878.443 5009.99 879.134C5010.32 879.535 5010.48 880.016 5010.48 880.576C5010.48 881.295 5010.22 881.887 5009.7 882.354C5009.19 882.811 5008.54 883.04 5007.77 883.04C5007.24 883.04 5006.77 882.933 5006.35 882.718C5006.17 882.755 5006 882.844 5005.85 882.984C5005.7 883.115 5005.63 883.297 5005.63 883.53C5005.63 884.025 5006.04 884.272 5006.86 884.272H5009.46C5010.09 884.272 5010.58 884.407 5010.95 884.678C5011.31 884.939 5011.49 885.308 5011.49 885.784C5011.49 886.493 5011.13 887.114 5010.41 887.646C5009.71 888.178 5008.8 888.444 5007.71 888.444C5006.62 888.444 5005.76 888.239 5005.14 887.828C5004.51 887.427 5004.2 886.918 5004.2 886.302C5004.2 885.901 5004.32 885.574 5004.55 885.322C5004.79 885.07 5005.11 884.893 5005.5 884.79ZM5005.29 886.26C5005.29 886.615 5005.48 886.918 5005.86 887.17C5006.26 887.431 5006.84 887.562 5007.63 887.562C5008.42 887.562 5009.08 887.389 5009.6 887.044C5010.13 886.708 5010.4 886.311 5010.4 885.854C5010.4 885.639 5010.32 885.453 5010.16 885.294C5010.01 885.145 5009.78 885.07 5009.46 885.07H5006.76C5006.28 885.089 5005.92 885.201 5005.67 885.406C5005.42 885.621 5005.29 885.905 5005.29 886.26ZM5009.41 880.576C5009.41 880.091 5009.26 879.699 5008.97 879.4C5008.68 879.092 5008.28 878.938 5007.77 878.938C5007.26 878.938 5006.87 879.092 5006.58 879.4C5006.29 879.699 5006.14 880.091 5006.14 880.576C5006.14 881.061 5006.29 881.463 5006.58 881.78C5006.88 882.088 5007.28 882.242 5007.78 882.242C5008.29 882.242 5008.68 882.083 5008.97 881.766C5009.26 881.449 5009.41 881.052 5009.41 880.576ZM5014.2 879.596C5014.64 878.625 5015.39 878.14 5016.45 878.14C5017.25 878.14 5017.86 878.401 5018.3 878.924C5018.75 879.447 5018.97 880.161 5018.97 881.066V885H5017.88V881.066C5017.88 880.422 5017.73 879.937 5017.42 879.61C5017.12 879.283 5016.69 879.12 5016.13 879.12C5015.57 879.12 5015.12 879.349 5014.77 879.806C5014.43 880.263 5014.25 880.898 5014.23 881.71V885H5013.12V878.308H5014.07L5014.2 879.596ZM5024.91 876.194H5026.01V885H5024.91V876.194ZM5029.9 879.596C5030.33 878.625 5031.09 878.14 5032.15 878.14C5032.94 878.14 5033.56 878.401 5034 878.924C5034.45 879.447 5034.67 880.161 5034.67 881.066V885H5033.58V881.066C5033.58 880.422 5033.42 879.937 5033.12 879.61C5032.82 879.283 5032.39 879.12 5031.83 879.12C5031.27 879.12 5030.82 879.349 5030.47 879.806C5030.12 880.263 5029.94 880.898 5029.92 881.71V885H5028.82V878.308H5029.77L5029.9 879.596Z" fill="#32403B"/>
<path d="M4991.15 886.4H5035.86V887.1H4991.15V886.4Z" fill="#32403B"/>
<defs>
<clipPath id="clip0_3_2">
<rect width="1600" height="960" fill="white"/>
</clipPath>
</defs>
</svg>
