<svg width="336" height="116" viewBox="0 0 336 116" fill="none" xmlns="http://www.w3.org/2000/svg">
<path fill-rule="evenodd" clip-rule="evenodd" d="M97.3322 9.37374V18.2488H98.4566V19.8762H98.0818C129.955 40.0033 112.081 46.252 115.831 50.252C109.707 50.1252 103.581 50.1252 97.3322 50.252H78.5789C80.9544 45.8758 62.4561 40.1259 95.4555 19.8762H95.0793V18.2488H96.2065V9.87398C95.9571 9.87398 95.7077 9.87398 95.4555 9.87398C94.0804 9.87398 92.832 8.99895 92.3304 7.6238C92.956 8.25079 93.707 8.49882 94.582 8.49882C96.4559 8.49882 98.0818 6.99968 98.0818 5.12294C98.0818 4.74534 97.9564 4.24798 97.8324 4C98.5806 4.62276 98.9554 5.49628 98.9554 6.37548C98.9554 7.62382 98.3298 8.74816 97.3322 9.37374ZM35.0786 58.0014C35.4519 57.2532 32.4537 56.374 37.9514 53.0009C43.2026 56.374 40.3284 57.3786 40.9525 58.0014C38.9518 58.0014 37.0793 58.0014 35.0786 58.0014ZM34.8292 63.7513H40.8271V60.4981H34.8292V63.7513ZM35.9535 63.0032H37.0793V61.1236H35.9535V63.0032ZM38.7024 63.0032H39.7028V61.1236H38.7024V63.0032ZM37.3287 63.0032H38.3276V61.1236H37.3287V63.0032ZM34.0768 60.1261H41.7049V59.5019H34.0768V60.1261ZM34.0768 59.0031H41.7049V58.3761H34.0768V59.0031ZM34.0768 64.7489H41.7049V64.2501H34.0768V64.7489ZM34.0768 65.4999H41.7049V65.0011H34.0768V65.4999ZM34.7038 65.6253H40.9525V81.1281H34.7038V65.6253ZM40.9525 82.1299V95.5052H34.7038V82.1299H40.9525ZM40.9525 96.5027V104.756H48.3271V66.5045L60.7034 64.0022V104.758H61.2022V57.2547H62.8295V56.7517H77.3306V52.3754H116.332V56.002V56.7502H131.331V57.2532H132.582V104.756H133.331V63.3752L145.331 66.7539V104.756H153.457V96.5027H159.582V104.756H170.707V91.3797H180.709V104.756H193.456V108.128H0.451843V104.756H13.5777V91.3797H23.7026V104.756H34.7038V96.5027H40.9525ZM23.2024 28.747C22.5768 27.6255 27.4532 26.2518 18.5767 20.878C9.95247 26.125 14.7021 27.7495 13.7017 28.747C16.8268 28.747 20.0773 28.747 23.2024 28.747ZM23.4546 38.1237H13.8271V32.8711H23.4546V38.1237ZM21.7019 37.0008H20.0773V34.0011H21.7019V37.0008ZM17.2016 37.0008H15.5771V34.0011H17.2016V37.0008ZM19.4531 37.0008H17.8272V34.0011H19.4531V37.0008ZM24.9509 32.6245H12.452V31.2508H24.9509V32.6245ZM24.9509 30.6265H12.452V29.3782H24.9509V30.6265ZM24.9509 39.751H12.452V38.5027H24.9509V39.751ZM24.9509 41.0008H12.452V40.1258H24.9509V41.0008ZM193.456 116H0.451843V109.254H193.456V116ZM23.704 41.2516H13.5792V66.3748H23.704V41.2516ZM171.085 28.747C171.833 27.6255 166.834 26.2518 175.834 20.878C184.456 26.125 179.707 27.7495 180.709 28.747C177.46 28.747 174.332 28.747 171.085 28.747ZM180.585 38.1237V32.8711H181.96V31.2508H169.457L336 0.5L170.834 32.8711V38.1237H169.457V39.6256V39.751V41.2502H170.707V66.3735H180.709V41.2502H181.96V39.751V39.6256V38.1237H180.585ZM172.709 37.0008H174.332V34.0011H172.709V37.0008ZM177.085 37.0008H178.832V34.0011H177.085V37.0008ZM174.956 37.0008H176.585V34.0011H174.956V37.0008ZM169.457 30.9986H181.96V29.3782H169.457V30.9986ZM180.709 68.0036V89.6256H170.707V68.0036H180.709ZM79.7061 104.756H114.082V59.3765H79.7061V104.756ZM159.334 58.0014C158.959 57.2532 161.957 56.374 156.459 53.0009C151.083 56.374 154.083 57.3786 153.46 58.0014C155.456 58.0014 157.332 58.0014 159.334 58.0014ZM159.583 63.7513H153.584V60.4981H159.583V63.7513ZM158.332 63.0032H157.332V61.1236H158.332V63.0032ZM155.707 63.0032H154.71V61.1236H155.707V63.0032ZM156.958 63.0032H155.958V61.1236H156.958V63.0032ZM160.331 60.2515H152.709V59.5019H160.331V60.2515ZM160.331 59.0031H152.709V58.3761H160.331V59.0031ZM160.331 64.7489H152.709V64.1261H160.331V64.7489ZM160.331 65.6253H159.583V81.1281H153.458V65.6253H152.709V65.0025H160.331V65.6253ZM153.458 82.1299V95.5052H159.583V82.1299H153.458ZM13.5792 68.0036V89.6256H23.704V68.0036H13.5792ZM57.3289 91.7531V101.003L50.9562 101.128V92.5027C50.9562 90.8782 53.9544 88.2519 54.0798 88.2519C54.2038 88.2519 57.3289 90.1286 57.3289 91.7531ZM57.3289 76.2532V85.379L50.9562 86.1285V77.0012C50.9562 75.2485 53.9544 72.6264 54.0798 72.6264C54.2038 72.501 57.3289 74.3764 57.3289 76.2532ZM136.957 91.7531V101.003L143.332 101.128V92.5027C143.332 90.8782 140.208 88.2519 140.085 88.2519C139.958 88.2519 136.957 90.1286 136.957 91.7531ZM136.957 76.2532V85.379L143.332 86.1285V77.0012C143.332 75.2485 140.208 72.6264 140.085 72.6264C139.958 72.501 136.957 74.3764 136.957 76.2532ZM118.205 56.002C118.958 54.6269 112.955 53.0023 123.957 46.3746H123.833H123.459V45.8758H123.833V43.6257C123.71 43.6257 123.583 43.6257 123.459 43.6257C123.082 43.6257 122.582 43.2509 122.457 42.8733C122.582 42.9987 122.957 43.1241 123.211 43.1241C123.833 43.1241 124.332 42.6254 124.332 42.1224C124.332 42.0012 124.332 41.8758 124.21 41.7504C124.459 41.8758 124.583 42.1223 124.583 42.4985C124.583 42.8733 124.459 43.1227 124.21 43.3778V45.8744H124.459V46.3732H124.21H123.959C134.458 52.753 128.959 54.7509 129.958 56.0007L118.205 56.002ZM100.081 78.251V85.379H107.333V78.003C107.333 73.7536 97.4576 68.0036 96.9561 68.0036C96.4559 68.0036 86.5805 73.7536 86.5805 78.003V85.379H93.707V78.251C93.707 77.0013 96.7067 75.2485 96.9561 75.2485C97.0786 75.2499 100.081 77.0027 100.081 78.251ZM100.081 94.1244V101.128H93.7056V94.1244C93.7056 92.7493 96.7053 91.0036 96.9547 91.0036C97.0787 91.0036 100.081 92.7507 100.081 94.1244ZM107.333 87.8799H86.5805V101.128H83.5822V63.1286H110.207V101.128H107.333V87.8799ZM67.0804 79.8756H69.5813V84.6252H67.0804V79.8756ZM67.0804 96.376H69.5813V101.128H67.0804V96.376ZM124.456 96.376H126.956V101.128H124.456V96.376ZM124.456 79.8756H126.956V84.6252H124.456V79.8756ZM64.8303 59.7499H67.0804V63.1286H64.8303V59.7499ZM127.332 59.7499H129.706V63.1286H127.332V59.7499ZM123.581 59.7499H125.831V63.1286H123.581V59.7499ZM119.705 59.7499H121.957V63.1286H119.705V59.7499ZM72.5796 59.7499H74.8311V63.1286H72.5796V59.7499ZM68.7049 59.7499H70.955V63.1286H68.7049V59.7499ZM121.083 87.5023H124.58C123.832 87.8799 123.081 88.5027 122.706 88.7507C121.957 89.3748 120.958 90.5048 120.958 91.6278V101.629H130.584V91.6278C130.584 90.5048 129.458 89.3748 128.707 88.7507C128.458 88.5027 127.581 87.8799 126.832 87.5023H130.584V86.5048H121.083V87.5023ZM63.5791 70.5003H67.8299C67.0804 70.8779 65.7052 72.0022 65.3305 72.253C64.5781 72.8786 63.4537 74.0002 63.4537 75.1274V85.1254H73.0798V75.1274C73.0798 74.0002 71.9554 72.8786 71.2044 72.253C70.8297 71.8768 69.5813 70.8765 68.7049 70.5003H73.0812V69.5028H63.5805V70.5003H63.5791ZM63.5791 87.5023H67.2044C66.4534 87.8799 65.5798 88.5027 65.3305 88.7507C64.5781 89.3748 63.4537 90.5048 63.4537 91.6278V101.629H73.0798V91.6278C73.0798 90.5048 72.0808 89.3748 71.2044 88.7507C70.955 88.5027 70.2054 87.8799 69.4559 87.5023H73.0812V86.5048H63.5805V87.5023H63.5791ZM120.832 70.5003H125.333C124.456 70.8779 123.081 71.8768 122.83 72.253C121.957 72.8786 120.958 74.0002 120.958 75.1274V85.1254H130.584V75.1274C130.584 74.0002 129.458 72.8786 128.707 72.253C128.332 72.0022 126.957 70.8765 126.208 70.5003H130.208V69.5028H120.832V70.5003ZM70.328 41.7504C70.5802 41.8758 70.7042 42.1223 70.7042 42.4985C70.7042 42.8733 70.5802 43.1227 70.328 43.3778V45.8744H70.7042V46.3732H70.328H70.0787H69.9547H69.5799V45.8744H69.9547V43.6243C69.8293 43.6243 69.7039 43.6243 69.5799 43.6243C69.2037 43.6243 68.8289 43.2495 68.5781 42.8719C68.8303 42.9973 69.0783 43.1227 69.3291 43.1227C69.9547 43.1227 70.4534 42.6239 70.4534 42.1209C70.4548 42.0012 70.4548 41.8758 70.328 41.7504ZM70.0801 46.3732C80.5797 52.753 75.2059 54.7509 76.0794 56.0007H64.3287C65.2051 54.6269 59.0789 53.0024 70.0801 46.3732Z" fill="#009EE2"/>
</svg>
